<?xml version="1.0" standalone="no"?>
<!DOCTYPE svg PUBLIC "-//W3C//DTD SVG 1.1//EN" "http://www.w3.org/Graphics/SVG/1.1/DTD/svg11.dtd">
<svg viewBox="-6 -6 1036 539.749658586457" style="fill-opacity:0.5; stroke:black; stroke-width:1; fill:none" xmlns="http://www.w3.org/2000/svg" version="1.1">
<path d="M 723.462267 323.811906 L 727.147392 323.386014 729.889955 323.289015 782.93075 324.001945 787.088993 324.357138 811.924205 328.580142 809.686717 333.01892 806.936518 338.474635 803.179281 345.489974 802.867921 346.127115 798.959387 353.55053 795.860783 359.073551 795.001081 361.102618 789.333834 371.251062 789.634164 370.113371 786.70948 369.315319 785.925285 370.249396 783.296123 369.585107 780.09147 369.039875 772.55522 367.967227 769.97272 367.561979 770.453757 366.595379 769.655139 366.439558 769.181737 367.414924 765.545536 366.57417 760.284951 365.347115 755.503423 364.29002 750.420151 363.252439 747.651571 362.813256 744.86065 362.453538 738.315885 361.957795 733.587805 361.648416 728.50821 361.313867 723.419565 360.966875 713.059871 360.242633 709.142005 359.946262 705.103667 359.779129 701.389415 359.817307 696.369489 360.105477 693.690839 360.399585 687.838642 354.682849 682.698246 351.658337 685.444485 349.751439 685.925522 349.417456 686.717636 348.867416 696.78916 342.172486 698.01367 341.358597 698.360944 341.116805 701.949918 338.616034 703.965693 336.98571 708.58433 331.641983 709.721456 330.116011 710.798911 329.439844 717.603284 325.170744 720.271472 324.407193 721.785 324.160594 Z" />
<path d="M 492.795131 333.389384 L 485.940986 328.922609 484.646059 327.686504 476.233421 321.481095 471.114517 317.822271 468.938961 315.51776 468.407304 314.423902 468.00149 312.962408 467.777232 311.997223 468.177955 308.568595 473.468234 302.525794 479.403573 298.93682 481.515499 298.248493 488.460705 298.611038 491.586457 298.732075 493.332162 298.897229 494.653105 299.020528 496.941497 299.260905 500.126354 299.343482 502.146088 299.331604 505.44265 299.810662 511.273071 301.677121 516.139155 302.962432 519.777052 303.068764 524.706483 303.392283 530.424068 303.985873 530.00666 305.118474 529.030445 305.992316 527.856556 307.1252 526.761567 308.172114 534.504825 309.005516 534.384919 312.877852 534.320441 314.986667 530.345167 317.8596 528.95607 318.709404 527.770586 320.230285 527.150978 321.737309 526.988087 323.42306 526.865636 325.34014 526.637985 326.123769 526.367065 326.686535 524.786514 328.410464 522.089481 330.027213 521.212246 335.755261 520.471318 340.593066 519.971334 342.278534 519.476722 343.304804 518.676973 344.230963 518.067829 343.996242 503.535752 337.348821 Z" />
<path d="M 625.912939 323.798614 L 621.408835 323.428999 620.052824 323.331434 618.253671 323.202196 614.229474 324.185763 609.322667 325.548561 602.125207 327.41304 595.922625 330.656719 587.359539 330.717803 586.4314 330.087732 584.755264 328.665264 583.048586 325.648105 582.392214 324.676981 582.141939 324.316698 579.444058 319.937873 577.478055 316.60681 577.422627 314.2053 577.905078 311.899658 577.994725 311.471504 578.021873 311.233672 578.09229 310.175446 578.15507 309.341761 578.161858 308.659938 578.636108 308.030433 579.267027 307.379152 602.493691 296.332545 607.418031 297.396992 610.266925 298.026497 611.142747 298.21286 612.876291 298.657417 615.319372 294.229385 630.85962 297.626905 631.606203 296.143636 631.953761 295.385741 632.124287 294.789888 632.306125 294.025772 632.420941 292.806069 632.789425 288.893576 633.680518 279.432045 637.185783 278.218281 639.247089 275.909811 641.308395 272.569981 644.400212 269.622956 645.835688 268.873262 646.074368 267.965202 647.033332 267.057141 648.587018 265.255443 649.366405 263.672064 649.078236 261.932581 649.214826 259.164001 651.082699 259.216884 652.992991 259.529091 657.69477 269.686586 659.905675 273.170359 663.023227 275.684139 666.900087 277.571242 670.151685 279.027363 670.289124 279.092689 674.000831 280.712831 671.633257 282.27698 667.817197 289.677489 662.979393 301.340875 660.682235 305.107163 656.106866 312.609195 652.554091 317.317478 650.740515 318.652562 646.058815 322.278582 644.175671 324.514656 639.961716 329.625359 638.473357 329.301839 637.939154 329.157613 636.848124 328.82363 633.839449 327.749002 629.952691 325.675254 627.925321 323.168543 627.280827 323.392801 Z" />
<path d="M 280.015454 103.255884 L 280.81379 103.124949 281.193303 102.963473 281.318299 102.914266 281.782369 102.356591 282.037451 101.754799 282.085244 101.314202 281.665291 100.396526 281.542274 100.042182 281.678017 99.927084 281.757482 99.83065 281.862117 99.560296 282.015393 99.356683 282.10815 99.198034 282.887256 98.306093 283.983093 97.178582 284.242983 96.75976 285.234469 95.78807 285.979921 95.203529 287.03249 94.491164 288.139074 93.805665 288.316671 93.69594 289.746774 93.012137 294.045002 91.21355 296.982977 89.843965 298.875736 88.961639 302.155613 87.20434 307.195051 84.919342 309.466192 83.889679 309.545375 83.862814 311.30635 83.19004 311.629304 83.066741 312.957883 82.553465 314.187484 82.132946 316.77564 81.522388 317.621202 81.373071 326.371499 80.918334 327.753527 80.865451 328.406505 80.706519 337.656787 88.866054 346.635301 97.164442 349.388893 100.023235 351.465187 103.176136 351.726774 107.748959 353.296862 112.709215 356.611805 117.39855 367.344225 129.565881 374.427153 137.255408 377.324689 140.027099 378.211539 140.294625 373.933107 139.625245 359.896773 139.421631 356.346825 138.895629 344.028481 136.125069 323.032518 129.067593 311.078416 126.135274 305.404665 124.275036 304.524884 125.386993 315.932905 130.523431 323.73046 137.318471 326.916166 139.32039 337.018232 144.417801 341.078062 145.290229 351.200207 147.465502 354.121214 147.768095 358.491838 148.839894 362.560435 150.378026 363.164206 150.603415 366.181648 164.637487 366.524397 166.432398 365.685622 167.24459 365.629346 167.986932 365.344287 169.617255 364.992205 170.936219 365.297342 173.520416 364.968167 175.003119 365.339762 175.47341 365.631042 176.164283 365.586926 179.393822 365.453446 180.052173 365.461082 181.532897 365.46702 182.972332 365.001537 187.573718 364.802731 193.246338 363.722447 195.890488 363.414481 198.76738 362.848605 202.95362 362.03104 206.662217 363.555597 206.497346 363.722447 209.361229 367.30124 209.51705 367.216401 212.197963 368.846442 213.651821 361.388808 214.52227 360.786168 214.477588 360.71349 214.150675 352.813845 214.355985 351.685486 214.439693 350.353513 214.528774 349.87191 214.574304 348.107541 215.005287 347.757439 215.180338 345.899464 216.109325 342.509014 218.920042 338.875075 216.134777 334.767452 214.097226 333.036453 212.887139 329.801259 210.552369 329.330685 210.186713 328.791391 209.797302 327.181995 208.59796 322.95079 205.518304 322.218346 204.703849 318.646057 204.057376 315.761248 203.274594 309.217331 206.140739 297.131446 207.41389 296.342725 208.202893 292.853579 208.587214 292.252919 207.829319 289.977536 207.728078 286.670228 208.254362 282.868308 208.569398 282.233995 208.603616 282.140672 207.667559 272.100256 209.33606 271.766556 205.73436 260.512093 207.831016 256.432467 209.284874 251.532447 210.175118 249.105203 211.136344 245.312616 208.101369 242.900642 206.806443 240.488386 205.754439 238.531432 205.299136 233.540352 204.904635 231.826321 205.076575 229.216955 205.754439 228.48536 205.85059 219.186437 200.162699 214.284155 196.945037 203.179575 189.459407 200.51676 175.792688 197.079366 168.183475 198.279555 154.984785 198.444708 153.11663 201.298693 121.786142 201.733918 121.714877 202.688922 121.564712 202.836259 121.546613 203.661743 121.384005 203.523455 120.117358 212.352087 120.001977 219.520703 119.938348 220.138896 119.932127 220.127302 118.854954 226.353072 118.640311 227.571644 118.598457 231.667672 118.444898 234.200965 118.349879 234.989685 117.585762 235.872577 116.71701 240.725369 115.957135 245.399717 115.22554 253.444154 114.091242 258.790426 113.327408 267.074392 112.290958 273.639519 111.412309 273.793926 111.391382 273.994994 111.364233 274.510815 111.306543 275.312261 110.221734 275.486181 109.931019 275.953362 109.149369 276.136048 108.843948 276.219191 108.503744 276.510471 108.104435 276.63773 107.957663 277.244895 106.481747 277.603481 105.3647 278.007597 104.162814 278.179255 103.642468 278.254762 103.579969 278.536427 103.497393 279.132846 103.401808 Z" />
<path d="M 315.145599 334.109384 L 325.587587 331.010215 345.449817 333.823477 349.175665 333.778229 353.036689 333.853736 356.818247 333.952149 359.881219 334.046603 362.38906 334.258135 368.110322 334.864452 371.735211 335.629983 382.950082 341.754512 385.918599 344.242275 388.133464 347.333244 392.520772 346.61494 394.828394 346.393793 400.405712 346.082999 402.078455 347.030934 401.000716 375.044781 400.313803 384.729722 400.300511 384.891481 400.294007 385.146847 400.461705 403.117167 400.468493 403.683043 399.774227 406.001694 398.443102 411.451188 398.844674 412.720662 394.121402 413.625329 392.174064 414.530562 392.066884 414.554599 391.676624 414.456752 377.510486 421.385272 369.765814 424.449375 360.574071 429.009756 357.749497 430.466159 339.253175 430.904211 327.252129 411.635571 326.402607 410.108186 325.165937 409.569175 324.290398 409.240848 322.424222 409.38366 321.88804 409.033275 321.510789 408.890746 321.329516 408.79007 320.320214 408.339009 321.975141 406.19343 320.738188 405.936934 315.22054 405.091371 314.482158 404.949407 313.017836 404.672549 312.37815 404.671135 312.125895 404.557168 311.670593 404.388621 307.301948 402.771872 307.375193 403.826704 307.420157 404.202824 306.832788 404.13976 304.703329 404.133539 301.054968 404.121944 295.387438 404.084049 291.401418 403.991292 290.966759 403.97093 289.326255 403.964992 289.335304 403.707364 289.347465 403.553805 289.471047 402.872831 289.659672 401.911039 289.818039 401.320559 289.993938 400.490268 290.153153 399.266606 290.278432 398.401531 290.445847 397.01611 290.089241 396.421388 290.211692 396.164609 290.395792 395.777743 290.469319 394.933029 290.520223 394.209917 290.524465 394.148268 289.922391 393.101637 289.293733 392.007779 289.814079 389.82176 289.693608 388.37582 289.671267 387.921932 289.653168 387.552033 289.884213 386.87926 290.443868 385.250916 290.637584 384.612078 290.75353 383.532643 289.882233 381.386216 290.31972 379.910299 290.286916 379.376379 290.264292 379.009026 290.2247 378.45531 290.220176 378.2763 290.208581 378.09842 290.196986 377.92648 290.194158 377.63831 291.668943 377.519818 292.155071 377.486731 294.204499 377.418577 294.240414 377.255403 294.276329 377.12362 294.337696 375.493014 294.358341 375.434758 294.529433 375.19127 294.65358 374.995857 294.739833 374.879062 294.845317 374.598245 294.973423 374.046508 295.795796 370.686317 295.887988 370.408045 295.987533 370.104039 296.116205 369.541556 296.246574 368.884054 296.3563 368.209583 296.363935 367.853542 296.342725 367.644838 296.370722 367.146833 296.340746 366.010273 296.228475 364.791984 296.057666 363.163358 295.897603 362.140199 295.813047 361.732124 295.647045 361.229594 295.48981 360.663717 295.152999 359.870472 294.36032 357.947737 293.977696 357.073047 293.85779 356.729732 293.757115 356.355309 293.654177 355.829024 293.560288 354.852527 293.541906 354.119235 293.329526 353.809855 293.153909 352.947891 293.123933 352.283601 293.140618 351.546067 293.180209 351.346412 293.227436 351.130073 293.384388 350.407244 293.374208 349.999169 293.443776 349.408689 293.819895 347.209661 294.173674 344.342102 294.404436 342.65324 294.42197 342.507317 294.423101 341.61481 294.400194 340.928745 294.369652 340.49748 294.190076 339.714699 294.129275 339.516458 294.006541 339.130158 293.904169 338.835484 293.390327 336.824233 293.362613 336.734869 293.320476 336.721578 292.515071 336.54483 301.534591 335.30618 Z" />
<path d="M 585.829043 354.82255 L 595.333277 349.502012 610.758992 341.490663 614.373134 339.61374 616.266459 340.051227 623.770471 339.204251 627.425053 338.97462 629.70892 338.149419 633.066283 336.791146 639.141606 331.863412 639.961716 329.625359 644.175671 324.514656 646.058815 322.278582 650.740515 318.652562 652.554091 317.317478 656.106866 312.609195 660.682235 305.107163 662.979393 301.340875 664.090784 301.587757 664.401012 301.721803 664.592466 301.911276 664.622442 302.258268 663.930439 304.166298 664.021499 304.542983 664.495184 304.880925 664.852639 305.063895 665.583103 305.1575 666.443653 305.149016 666.891038 304.791844 667.922963 303.145119 668.253836 302.940939 668.637025 302.871654 671.326422 303.371073 672.902166 303.623611 676.600582 304.67307 688.739633 306.431783 693.986927 307.019434 695.059575 307.152349 696.532663 308.167306 697.384164 308.753827 702.284749 309.429994 709.22543 310.34371 713.260657 310.793357 717.949427 311.058338 724.708553 311.290231 743.15482 310.868298 738.068437 312.698842 719.422799 314.656361 723.462267 323.811906 721.785 324.160594 720.271472 324.407193 717.603284 325.170744 710.798911 329.439844 709.721456 330.116011 708.58433 331.641983 703.965693 336.98571 701.949918 338.616034 698.360944 341.116805 698.01367 341.358597 696.78916 342.172486 686.717636 348.867416 685.925522 349.417456 685.444485 349.751439 682.698246 351.658337 682.115119 351.30569 679.04536 349.448846 677.888156 350.161777 670.895157 354.471317 665.099238 355.991915 659.106774 357.231696 626.148226 362.870663 611.859919 366.161004 606.662963 364.056996 600.139408 361.58818 599.546666 361.306232 588.807176 357.19267 587.345117 356.119739 586.432814 355.331302 Z M 670.895157 354.471317 L 668.894653 352.456673 669.924599 353.544309 Z" />
<path d="M 369.647322 226.036623 L 369.029411 226.570826 369.757613 227.263961 370.212633 233.820604 370.701871 234.183432 370.618163 234.94359 369.387997 235.627392 364.935362 237.94378 363.007254 240.323515 361.365902 242.118709 359.938061 241.820641 359.312514 242.066109 358.252309 242.391042 356.536016 242.788654 355.317727 242.927508 354.605928 242.9753 353.987169 242.997641 352.083098 242.932032 350.680992 242.790068 349.049537 242.500485 347.634139 242.22504 346.618899 241.894168 342.274575 248.077519 340.642555 254.564029 340.913192 256.820747 341.243215 258.683812 342.126673 261.066092 342.516649 262.132518 339.79671 262.148355 336.800761 261.629706 336.641264 262.148355 336.398341 262.452079 334.062157 262.816321 333.455275 263.403407 331.362014 263.059243 331.210152 263.362967 316.585883 263.342606 316.525365 263.484287 310.790812 263.524727 309.243348 264.354735 300.383891 264.152253 298.229828 264.253494 298.047707 264.496417 297.228445 264.496417 291.683932 264.169786 291.562612 265.070777 289.743097 264.972646 289.864417 263.839197 287.952145 263.724664 287.846379 264.867163 284.463847 264.770164 284.554908 264.223518 279.851998 264.183078 277.121312 265.215569 275.604391 266.996623 272.934506 265.35725 263.482307 264.605011 259.719979 264.655631 259.736099 263.555835 255.18505 263.515112 255.192969 262.422951 247.744102 262.448402 242.456085 259.625808 240.423342 261.225024 238.071887 259.929532 202.50369 240.785039 206.683709 237.922853 209.733107 233.406872 215.254996 229.359485 223.629174 223.491169 225.719325 222.080013 218.477465 217.401424 222.409471 214.69619 221.653556 213.014963 220.621913 212.246039 219.104991 211.558277 217.952029 210.58687 217.709107 209.817946 217.102507 207.268533 223.838161 207.066333 226.422075 206.488014 228.48536 205.85059 229.216955 205.754439 231.826321 205.076575 233.540352 204.904635 238.531432 205.299136 240.488386 205.754439 242.900642 206.806443 245.312616 208.101369 249.105203 211.136344 251.532447 210.175118 256.432467 209.284874 260.512093 207.831016 271.766556 205.73436 272.100256 209.33606 282.140672 207.667559 282.233995 208.603616 282.868308 208.569398 286.670228 208.254362 289.977536 207.728078 292.252919 207.829319 292.853579 208.587214 296.342725 208.202893 297.131446 207.41389 309.217331 206.140739 315.761248 203.274594 318.646057 204.057376 322.218346 204.703849 322.95079 205.518304 327.181995 208.59796 328.791391 209.797302 329.330685 210.186713 329.801259 210.552369 333.036453 212.887139 334.767452 214.097226 338.875075 216.134777 342.509014 218.920042 345.899464 216.109325 347.757439 215.180338 348.107541 215.005287 349.87191 214.574304 350.353513 214.528774 351.685486 214.439693 352.813845 214.355985 360.71349 214.150675 360.786168 214.477588 361.388808 214.52227 368.846442 213.651821 369.029411 216.286356 368.597015 216.599978 368.543849 216.893521 369.052035 217.151431 369.68154 225.994203 Z" />
<path d="M 496.123931 227.63301 L 501.376315 226.589208 509.222512 224.820314 513.334659 223.575443 516.052902 222.81076 518.415386 222.205575 520.417587 221.636871 524.236757 221.167145 527.722227 220.449973 530.095458 219.683311 531.763959 221.636871 533.428218 224.166205 534.825234 225.623174 535.606035 225.890417 537.021433 226.346568 539.196706 226.174345 543.382946 225.803881 545.242618 226.027008 546.127489 226.641525 547.933995 227.711345 545.298046 229.61683 544.708132 231.436344 543.761328 234.2004 543.509639 238.469782 543.271807 245.368609 539.403713 245.437046 537.21826 245.761131 533.373355 247.893702 550.481711 260.898676 543.856914 263.997846 527.252219 272.92376 532.088892 274.848475 528.461458 278.647566 525.300639 278.131462 523.664659 280.30419 522.723512 281.428024 520.917006 283.17288 518.977586 284.391734 517.796627 285.772631 515.573278 286.869034 514.539656 286.309945 512.89491 287.684054 512.073669 287.205562 510.088435 288.95664 511.582733 289.760348 510.836433 290.784921 512.110715 291.285471 510.877438 291.778951 509.668482 292.844812 502.146088 299.331604 500.126354 299.343482 496.941497 299.260905 494.653105 299.020528 493.332162 298.897229 491.586457 298.732075 488.460705 298.611038 481.515499 298.248493 479.403573 298.93682 473.468234 302.525794 471.175035 302.582919 447.438207 300.402556 450.813669 290.397206 451.354942 287.794628 451.753968 284.293887 451.065641 277.44568 450.453668 267.914015 454.686005 268.355744 457.29933 261.751591 457.418387 260.803939 457.460524 260.434889 457.561199 259.668227 457.06885 252.601136 456.976093 251.701277 456.499015 246.734235 455.170153 243.198144 454.321763 241.911136 448.638962 236.098249 443.316727 230.172243 441.026638 228.602438 441.007691 227.508297 455.908818 225.108201 461.983292 224.648091 469.886048 224.335883 470.447117 224.269143 470.824085 223.640203 481.283323 223.013525 486.95764 221.757342 Z" />
<path d="M 625.912939 323.798614 L 627.280827 323.392801 627.925321 323.168543 629.952691 325.675254 633.839449 327.749002 636.848124 328.82363 637.939154 329.157613 638.473357 329.301839 639.961716 329.625359 639.141606 331.863412 633.066283 336.791146 629.70892 338.149419 627.425053 338.97462 623.770471 339.204251 616.266459 340.051227 614.373134 339.61374 610.758992 341.490663 595.333277 349.502012 585.829043 354.82255 570.401349 363.961976 567.062367 366.664382 558.453186 362.556759 555.578274 361.12609 554.016387 360.348965 546.31668 356.613502 532.402514 350.240112 531.767635 349.946851 530.979198 349.61202 521.699222 345.651451 518.676973 344.230963 519.476722 343.304804 519.971334 342.278534 520.471318 340.593066 521.212246 335.755261 522.089481 330.027213 524.786514 328.410464 526.367065 326.686535 526.637985 326.123769 526.865636 325.34014 526.988087 323.42306 527.150978 321.737309 527.770586 320.230285 528.95607 318.709404 530.345167 317.8596 534.320441 314.986667 534.384919 312.877852 534.504825 309.005516 526.761567 308.172114 527.856556 307.1252 529.030445 305.992316 530.00666 305.118474 530.424068 303.985873 531.660172 295.979614 552.363157 300.248714 564.263245 302.200577 566.691055 302.900217 578.091724 306.63172 579.267027 307.379152 578.636108 308.030433 578.161858 308.659938 578.15507 309.341761 578.09229 310.175446 578.021873 311.233672 577.994725 311.471504 577.905078 311.899658 577.422627 314.2053 577.478055 316.60681 579.444058 319.937873 582.141939 324.316698 582.392214 324.676981 583.048586 325.648105 584.755264 328.665264 586.4314 330.087732 587.359539 330.717803 595.922625 330.656719 602.125207 327.41304 609.322667 325.548561 614.229474 324.185763 618.253671 323.202196 620.052824 323.331434 621.408835 323.428999 Z" />
<path d="M 523.664659 280.30419 L 525.300639 278.131462 528.461458 278.647566 532.088892 274.848475 527.252219 272.92376 543.856914 263.997846 550.481711 260.898676 551.938397 262.545967 565.498219 255.023291 564.999365 256.42568 569.756572 257.478249 574.545735 258.144801 575.998745 258.316742 580.056879 258.520073 583.966544 258.643372 587.88639 258.832563 590.520924 258.959539 593.337863 259.275706 600.71999 261.471622 601.144467 261.611041 607.349028 263.442433 615.704824 264.35926 618.292415 264.697768 621.739707 265.118004 627.757905 266.110055 628.00309 266.150495 626.664613 269.314708 626.813929 271.427765 627.727363 272.017962 632.907634 272.564891 634.629583 272.799895 634.942922 272.173217 635.403881 271.637035 636.480205 270.845769 640.917287 268.858557 643.946323 269.355431 645.835688 268.873262 644.400212 269.622956 641.308395 272.569981 639.247089 275.909811 637.185783 278.218281 633.680518 279.432045 632.789425 288.893576 632.420941 292.806069 632.306125 294.025772 632.124287 294.789888 631.953761 295.385741 631.606203 296.143636 630.85962 297.626905 615.319372 294.229385 612.876291 298.657417 611.142747 298.21286 610.266925 298.026497 607.418031 297.396992 602.493691 296.332545 579.267027 307.379152 578.091724 306.63172 566.691055 302.900217 564.263245 302.200577 552.363157 300.248714 531.660172 295.979614 530.424068 303.985873 524.706483 303.392283 519.777052 303.068764 516.139155 302.962432 511.273071 301.677121 505.44265 299.810662 502.146088 299.331604 509.668482 292.844812 510.877438 291.778951 512.110715 291.285471 510.836433 290.784921 511.582733 289.760348 510.088435 288.95664 512.073669 287.205562 512.89491 287.684054 514.539656 286.309945 515.573278 286.869034 517.796627 285.772631 518.977586 284.391734 520.917006 283.17288 522.723512 281.428024 Z M 575.418223 274.541089 L 575.387828 274.532097 575.389035 274.573314 Z M 570.33788 273.038147 L 569.576064 272.812776 570.231388 273.131333 Z" />
<path d="M 634.958193 202.906676 L 635.153889 205.614737 635.681022 209.36745 636.696545 209.099076 637.919924 209.08833 639.955778 212.126981 642.080713 213.096691 641.234867 214.579112 642.117759 222.454153 646.577747 222.164004 646.490645 218.190992 649.398079 216.443025 653.376464 217.073097 661.165817 219.217544 669.523593 221.345873 673.27263 221.871592 677.321148 221.589078 679.621417 222.638537 682.736423 223.85626 685.619253 220.723437 687.588367 221.541003 690.550946 217.734558 691.170271 220.524065 693.642197 221.219463 694.626047 222.42248 693.008733 224.636213 685.784407 230.699941 676.809851 238.623624 677.343772 241.790099 676.347762 243.990823 673.125575 244.658789 676.806175 246.877613 678.367779 247.849302 682.357476 252.361042 683.763541 254.140965 686.371776 256.05154 691.758771 258.475956 691.36427 258.903262 685.365585 265.81934 675.337329 279.82994 674.000831 280.712831 670.289124 279.092689 670.151685 279.027363 666.900087 277.571242 663.023227 275.684139 659.905675 273.170359 657.69477 269.686586 652.992991 259.529091 651.082699 259.216884 649.214826 259.164001 649.078236 261.932581 649.366405 263.672064 648.587018 265.255443 647.033332 267.057141 646.074368 267.965202 645.835688 268.873262 643.946323 269.355431 640.917287 268.858557 636.480205 270.845769 635.403881 271.637035 634.942922 272.173217 634.629583 272.799895 632.907634 272.564891 627.727363 272.017962 626.813929 271.427765 626.664613 269.314708 628.00309 266.150495 627.757905 266.110055 621.739707 265.118004 618.292415 264.697768 615.704824 264.35926 607.349028 263.442433 601.144467 261.611041 600.71999 261.471622 593.337863 259.275706 590.520924 258.959539 587.88639 258.832563 583.966544 258.643372 580.056879 258.520073 575.998745 258.316742 574.545735 258.144801 569.756572 257.478249 564.999365 256.42568 565.498219 255.023291 551.938397 262.545967 550.481711 260.898676 533.373355 247.893702 537.21826 245.761131 539.403713 245.437046 543.271807 245.368609 543.509639 238.469782 543.761328 234.2004 544.708132 231.436344 545.298046 229.61683 547.933995 227.711345 551.289095 226.193858 555.835336 225.338115 562.654132 225.142419 567.699509 225.828202 565.930898 218.572202 563.096991 209.437301 558.261167 203.955286 574.563834 204.27117 578.294206 204.053699 585.290881 202.158678 591.154672 200.754592 594.247337 200.013948 604.163888 198.779257 614.74982 199.002949 634.890888 199.867459 Z" />
<path d="M 369.647322 226.036623 L 369.68154 225.994203 369.052035 217.151431 368.543849 216.893521 368.597015 216.599978 369.029411 216.286356 368.846442 213.651821 367.216401 212.197963 367.30124 209.51705 363.722447 209.361229 363.555597 206.497346 362.03104 206.662217 362.848605 202.95362 363.414481 198.76738 363.722447 195.890488 364.802731 193.246338 365.001537 187.573718 365.46702 182.972332 365.461082 181.532897 365.453446 180.052173 365.586926 179.393822 365.631042 176.164283 365.339762 175.47341 364.968167 175.003119 365.297342 173.520416 364.992205 170.936219 365.344287 169.617255 365.629346 167.986932 365.685622 167.24459 366.524397 166.432398 366.181648 164.637487 363.164206 150.603415 362.560435 150.378026 358.491838 148.839894 354.121214 147.768095 351.200207 147.465502 341.078062 145.290229 337.018232 144.417801 326.916166 139.32039 323.73046 137.318471 315.932905 130.523431 304.524884 125.386993 305.404665 124.275036 311.078416 126.135274 323.032518 129.067593 344.028481 136.125069 356.346825 138.895629 359.896773 139.421631 373.933107 139.625245 378.211539 140.294625 408.24201 147.116814 426.257012 153.996693 455.857349 160.581333 492.284682 168.728708 499.950171 168.810719 505.255439 167.009303 505.793884 166.826334 509.507288 161.952332 510.472191 173.931037 506.798661 189.87229 506.511056 191.408442 506.527176 191.84706 506.903861 202.157547 504.778078 210.075008 502.653426 217.98851 501.903731 222.045512 501.376315 226.589208 496.123931 227.63301 486.95764 221.757342 481.283323 223.013525 470.824085 223.640203 470.447117 224.269143 469.886048 224.335883 461.983292 224.648091 455.908818 225.108201 441.007691 227.508297 439.268208 227.390371 429.574501 224.183173 424.082588 221.329753 421.124534 228.321338 420.275012 228.048156 412.917206 228.513357 398.687439 228.665219 392.088376 228.037975 388.265247 227.21843 387.66996 229.434143 387.506786 230.041308 384.594262 229.737867 384.479164 230.087969 384.150554 231.086807 383.395769 233.380289 385.671152 233.693911 385.492707 234.360745 385.336604 234.944155 380.9903 234.316912 380.658297 234.226134 376.077272 232.975324 374.300177 232.981263 372.950388 233.234083 370.701871 234.183432 370.212633 233.820604 369.757613 227.263961 369.029411 226.570826 Z" />
<path d="M 789.333834 371.251062 L 795.001081 361.102618 795.860783 359.073551 798.959387 353.55053 802.867921 346.127115 803.179281 345.489974 806.936518 338.474635 809.686717 333.01892 811.924205 328.580142 823.692227 324.04182 827.813141 321.96185 828.708475 321.505133 835.89519 317.77872 839.218334 316.238043 849.378939 311.19408 861.144133 305.141664 860.063001 299.173521 859.799151 297.717683 868.693675 255.898264 885.963225 259.775407 887.048599 260.472219 887.591569 260.761803 889.195309 261.580499 889.367249 261.677781 892.90843 263.678851 901.110951 268.02063 901.747809 268.470277 901.873371 268.708109 900.796481 273.325614 900.354752 274.964987 900.135867 275.775765 897.716258 288.772822 897.513493 289.541463 897.587586 293.988442 897.589565 294.105237 906.238056 293.06709 911.267879 292.600759 911.975154 292.506587 916.582761 292.009996 917.082463 291.933358 917.389015 291.886131 922.188924 291.167262 927.681686 290.400883 928.640084 290.260333 956.251794 286.747431 972.31974 284.746361 975.309185 284.41662 977.062242 284.187272 978.688041 283.975175 979.43519 283.886659 980.221365 283.788246 981.98743 283.57728 982.872867 283.540233 987.919093 282.9079 988.134018 282.961065 988.320381 283.166376 988.883712 283.787115 989.12211 284.049267 992.840887 286.861398 995.562523 289.004149 997.616193 290.642108 997.258738 290.79906 996.898738 290.957144 991.817729 292.886949 990.68937 293.301812 995.448839 297.00956 993.873096 297.804502 992.594854 298.439381 992.244752 298.613583 990.472182 299.461691 990.345206 299.528996 989.017192 300.203184 988.701874 300.364095 988.350358 300.569123 987.955573 300.797906 990.097476 302.323311 992.87963 304.546942 997.552847 308.072852 997.727615 308.294848 997.857985 308.478383 997.877215 308.495916 998.358818 308.934251 998.625495 309.185092 999.164788 309.630497 999.421285 309.781227 999.697295 309.867763 1000.236023 309.93818 1000.419841 309.952037 1000.596306 309.963066 1000.908231 309.990497 1006.387701 311.419186 1009.768536 312.268708 1012.088035 310.979155 1015.266953 309.212806 1016.515784 308.596592 1016.832516 308.925484 1016.911699 308.99279 1020.452315 311.998071 1020.808639 312.300664 1022.062559 313.244357 1024 314.703022 1018.165337 317.227549 1015.975642 318.175766 1014.956725 318.652845 1016.470253 321.007128 1016.663686 321.332344 1017.098628 322.062242 1016.229028 322.349564 1013.347894 323.190601 1012.295325 323.627522 1010.660194 324.159463 1009.75779 324.40889 1008.253594 324.74259 1007.891614 324.822904 1005.826349 325.694484 1002.420345 326.692757 1001.948074 326.504414 1001.767933 326.223597 1001.392944 325.650933 1001.185371 325.333635 1000.942166 324.961758 1000.793415 324.733541 999.857358 323.301458 998.308763 323.72735 997.902101 323.846407 994.405602 324.870697 994.070488 324.968827 993.988194 324.992865 994.816505 325.817783 995.962964 326.891845 996.808809 327.697251 997.193129 328.297911 998.225338 329.260268 998.753885 329.806349 999.260374 330.329806 999.665622 330.747214 999.227287 330.955635 995.249467 332.849242 992.834383 334.252197 992.584956 334.396706 992.754069 334.485504 996.918817 336.671523 999.178646 335.610187 999.256132 335.564091 1000.189361 335.170155 1000.470178 335.383949 1002.813149 337.140966 1003.232254 337.504077 1002.763377 337.868602 1004.47656 339.097071 1004.445452 339.153347 1002.847085 342.07888 1002.075616 343.490884 1001.583549 344.391026 1001.374845 344.750744 1000.789456 345.92633 999.705779 347.821916 998.411418 350.157252 998.194513 350.442594 997.769469 350.789303 997.116492 351.178997 993.232561 353.495668 990.13933 350.996593 990.087012 350.965768 989.49823 351.374975 988.174741 352.355431 986.53056 353.691929 984.461619 355.296518 983.820236 354.351694 982.144383 355.050202 980.995097 355.52021 980.849173 355.431412 980.105418 355.069149 979.524553 354.865818 979.21885 354.822833 977.971434 354.868646 977.918833 354.870626 977.079493 355.013438 976.002037 355.330453 975.935297 355.343745 975.867991 355.369762 975.787394 355.393517 975.734511 355.421797 975.179381 355.638419 974.15396 356.111255 972.995625 356.786291 971.378027 357.70934 971.124641 357.835467 970.612496 358.092812 963.731203 354.010075 959.278285 351.211518 957.412675 350.056859 957.048715 349.792162 956.716146 349.553481 956.253774 349.245798 955.209971 348.551815 955.125132 348.496104 953.169027 347.246142 951.242332 348.566238 949.457036 349.789616 949.225709 349.947983 948.985897 350.112287 948.888615 350.179027 947.868567 350.156121 947.656469 350.164322 946.843146 350.673073 946.696657 350.774315 942.469128 353.690232 942.863064 353.925236 943.541211 354.330201 952.257007 359.064502 950.744327 360.398171 948.195763 362.644143 945.566036 361.483828 944.499043 362.615298 944.589538 363.076257 943.167919 364.387585 943.008705 364.542275 943.46429 364.835818 944.27422 365.407633 947.124246 366.022999 949.336848 366.473777 952.066685 367.223754 953.37264 367.688672 954.315485 368.08996 954.685948 368.288766 955.022759 368.459293 955.245603 368.371909 956.234261 368.088546 957.842809 368.544415 958.10581 368.296119 980.486062 373.103664 989.591835 375.163838 984.51224 378.868759 987.038746 380.355421 988.760696 381.56155 989.626337 382.249029 991.294555 383.376822 992.918091 384.486234 994.741282 385.875331 996.072123 386.649063 998.416225 387.883754 999.355111 388.26864 999.698426 388.484697 1000.006392 388.697077 1000.108764 388.765514 1000.016007 389.264933 998.920452 394.893437 997.119037 398.995404 996.705305 400.633929 996.5936 401.874275 996.256789 403.435879 995.605508 404.350727 995.156144 405.518112 994.829797 405.766407 994.492703 406.012723 992.464202 407.321789 991.261185 408.082513 991.140996 408.158868 991.126856 408.180077 990.953502 408.363613 990.221624 408.919591 986.879814 411.369177 986.353247 411.733984 985.112052 412.505171 985.071046 412.530623 984.57898 412.769586 984.48396 412.808046 984.121132 412.954818 983.382467 413.202265 978.851497 414.796673 976.640027 415.637711 976.168604 415.807672 975.299853 416.234129 974.965587 416.428693 974.626231 416.62552 973.64832 417.092983 972.562946 417.611349 972.282411 417.716833 971.77168 417.894995 971.431759 417.967956 971.118703 418.025929 969.946793 418.22615 969.369887 418.31919 969.230469 418.348035 968.972558 418.409685 968.814192 418.453235 968.578622 418.518279 967.956186 418.708601 967.479108 418.90769 966.438699 419.425491 963.620912 420.480605 963.461132 420.527832 961.924131 420.910739 960.583675 421.45682 960.378364 421.587755 960.262418 421.674008 959.88347 421.792217 959.319573 421.852452 956.421755 423.110898 954.792563 423.813365 952.436866 424.800609 951.105176 425.51156 950.351805 426.094404 949.806573 426.469958 948.530311 426.893022 946.686476 426.782731 944.728674 427.04149 944.046003 427.057044 943.275099 427.25076 942.873811 427.352001 941.384886 428.195584 941.159779 428.477249 941.133762 428.499025 940.853228 428.666723 937.812597 429.778397 936.8624 430.101917 935.99082 430.486238 934.942493 430.89601 934.124644 431.304934 933.397857 431.587448 932.175609 431.932743 931.451932 432.312539 931.332592 432.350151 911.123087 429.137863 905.705267 428.414751 898.45662 426.644726 894.807411 425.688873 894.793836 425.016383 858.56842 415.704451 847.604107 412.2351 854.829281 398.360526 830.854337 389.207526 817.36069 389.109112 817.101082 388.314736 816.755505 387.701633 816.307272 387.086833 815.995913 386.744649 815.191073 386.063957 814.487192 385.52636 800.245547 376.673125 795.280202 373.696972 792.994921 372.639029 Z" />
<path d="M 388.133464 347.333244 L 385.918599 344.242275 382.950082 341.754512 371.735211 335.629983 368.110322 334.864452 362.38906 334.258135 359.881219 334.046603 356.818247 333.952149 353.036689 333.853736 349.175665 333.778229 345.449817 333.823477 344.974719 331.302909 344.892708 329.38385 345.523344 327.306425 347.02952 323.76581 347.834642 322.082321 348.752601 320.323325 349.641714 318.573944 350.464369 316.954367 351.361966 315.481562 365.093446 291.458543 365.333823 290.859296 372.09917 291.559501 387.442591 293.006572 402.576177 294.764719 414.188943 295.978483 429.227226 297.633127 432.1751 297.999066 439.333534 297.778485 447.438207 300.402556 471.175035 302.582919 473.468234 302.525794 468.177955 308.568595 467.777232 311.997223 468.00149 312.962408 468.407304 314.423902 468.938961 315.51776 463.721078 318.628524 458.203431 321.887757 457.796204 322.146799 455.212572 323.917955 449.681633 327.790008 448.098537 329.228878 443.109154 333.72676 440.744973 335.284122 436.120963 337.893205 435.557915 338.210786 432.158132 339.607236 430.016512 340.491259 423.319036 343.174717 421.496411 343.918756 418.892419 345.719323 418.259237 347.731422 402.078455 347.030934 400.405712 346.082999 394.828394 346.393793 392.520772 346.61494 Z" />
<path d="M 572.583126 59.503549 L 575.499892 59.465372 581.283934 59.177485 584.159977 59.044287 586.76001 58.91307 587.581818 58.94446 588.374214 58.953227 592.12212 58.740281 593.703802 58.650351 603.933975 57.918473 606.690112 57.689408 607.32188 57.63398 608.354371 57.480704 608.840781 57.360798 619.716862 56.324631 624.598217 55.872439 626.125319 55.736696 626.162366 55.784206 626.637747 56.281646 627.065053 56.728465 627.445697 57.126925 628.872407 58.62094 630.552785 60.341193 630.562966 60.357313 630.628575 60.418962 630.647522 60.429991 630.807302 60.567996 631.992504 61.59172 633.722937 63.023803 635.872192 64.670812 637.339625 65.775699 638.898401 66.953264 639.034709 67.05196 639.309587 67.197601 639.808441 67.50698 639.894694 67.947012 639.966241 68.310123 640.294285 70.989905 640.517412 73.824377 640.752699 75.477324 640.821701 76.999902 640.697554 79.459951 640.764294 85.082516 640.883634 89.286856 641.020225 97.151999 640.984875 97.593162 640.978088 97.82251 639.386225 97.888402 628.313601 98.292801 627.54609 100.144554 640.32511 101.537611 639.592667 105.704339 634.942074 133.687927 635.252585 133.622601 635.71722 133.564344 649.893256 132.459457 649.8876 132.868382 649.883641 133.09773 649.545699 134.087801 648.172155 139.523721 649.237733 139.74911 648.921283 141.513479 647.026262 141.371232 645.915437 141.298836 645.999144 152.170674 645.050927 155.03993 639.449006 155.604676 631.317468 155.750316 631.835551 162.685906 631.820563 163.510825 632.006644 167.467434 632.2753 170.691034 633.001805 179.16815 633.769599 187.673828 634.853841 199.463342 634.890888 199.867459 614.74982 199.002949 604.163888 198.779257 594.247337 200.013948 591.154672 200.754592 585.290881 202.158678 578.294206 204.053699 574.563834 204.27117 558.261167 203.955286 563.096991 209.437301 565.930898 218.572202 567.699509 225.828202 562.654132 225.142419 555.835336 225.338115 551.289095 226.193858 547.933995 227.711345 546.127489 226.641525 545.242618 226.027008 543.382946 225.803881 539.196706 226.174345 537.021433 226.346568 535.606035 225.890417 534.825234 225.623174 533.428218 224.166205 531.763959 221.636871 530.095458 219.683311 527.722227 220.449973 524.236757 221.167145 520.417587 221.636871 518.415386 222.205575 516.052902 222.81076 513.334659 223.575443 509.222512 224.820314 501.376315 226.589208 501.903731 222.045512 502.653426 217.98851 504.778078 210.075008 506.903861 202.157547 506.527176 191.84706 506.511056 191.408442 506.798661 189.87229 510.472191 173.931037 509.507288 161.952332 523.775799 165.691188 536.419642 164.048704 541.203997 164.08066 550.386691 163.965845 573.436606 163.853291 579.217821 163.389788 579.623634 155.057464 578.836045 149.116752 578.162706 144.824746 579.027498 140.152095 578.326162 132.153471 577.164716 124.45235 575.062405 124.444997 574.519718 121.614767 575.950387 121.231578 575.91532 119.683831 576.655682 119.617657 576.214519 114.775893 573.520031 113.052813 573.678398 111.415137 573.101209 105.491958 572.162324 105.565486 572.044681 104.958321 573.26806 104.853403 572.778821 102.528531 576.632493 102.338775 Z" />
<path d="M 441.007691 227.508297 L 441.026638 228.602438 443.316727 230.172243 448.638962 236.098249 454.321763 241.911136 455.170153 243.198144 456.499015 246.734235 456.976093 251.701277 457.06885 252.601136 457.561199 259.668227 457.460524 260.434889 457.418387 260.803939 457.29933 261.751591 454.686005 268.355744 450.453668 267.914015 451.065641 277.44568 451.753968 284.293887 451.354942 287.794628 450.813669 290.397206 447.438207 300.402556 439.333534 297.778485 432.1751 297.999066 429.227226 297.633127 414.188943 295.978483 402.576177 294.764719 387.442591 293.006572 372.09917 291.559501 365.333823 290.859296 358.339411 283.695206 345.347728 268.674739 343.953257 265.670306 342.311339 262.237153 342.516649 262.132518 342.126673 261.066092 341.243215 258.683812 340.913192 256.820747 340.642555 254.564029 342.274575 248.077519 346.618899 241.894168 347.634139 242.22504 349.049537 242.500485 350.680992 242.790068 352.083098 242.932032 353.987169 242.997641 354.605928 242.9753 355.317727 242.927508 356.536016 242.788654 358.252309 242.391042 359.312514 242.066109 359.938061 241.820641 361.365902 242.118709 363.007254 240.323515 364.935362 237.94378 369.387997 235.627392 370.618163 234.94359 370.701871 234.183432 372.950388 233.234083 374.300177 232.981263 376.077272 232.975324 380.658297 234.226134 380.9903 234.316912 385.336604 234.944155 385.492707 234.360745 385.671152 233.693911 383.395769 233.380289 384.150554 231.086807 384.479164 230.087969 384.594262 229.737867 387.506786 230.041308 387.66996 229.434143 388.265247 227.21843 392.088376 228.037975 398.687439 228.665219 412.917206 228.513357 420.275012 228.048156 421.124534 228.321338 424.082588 221.329753 429.574501 224.183173 439.268208 227.390371 Z" />
<path d="M 509.507288 161.952332 L 505.793884 166.826334 505.255439 167.009303 499.950171 168.810719 492.284682 168.728708 455.857349 160.581333 426.257012 153.996693 408.24201 147.116814 378.211539 140.294625 377.324689 140.027099 374.427153 137.255408 367.344225 129.565881 356.611805 117.39855 353.296862 112.709215 351.726774 107.748959 351.465187 103.176136 349.388893 100.023235 346.635301 97.164442 337.656787 88.866054 328.406505 80.706519 328.574203 80.666079 329.272146 80.468687 329.152523 80.364618 329.036293 80.262528 328.933355 80.170902 328.779514 80.03827 330.413231 79.662999 333.967986 78.846282 336.079064 78.361286 342.276272 76.937969 345.231781 76.306202 349.013339 75.423027 349.545563 75.300011 350.580882 75.060765 352.792352 74.591322 356.101357 73.888855 357.363762 73.610583 364.293414 72.213567 364.803296 72.110629 369.236136 71.14205 368.298099 70.98934 362.31016 70.000117 362.589846 68.466793 361.684048 66.256453 361.231856 65.153263 360.065319 62.306065 360.000842 62.074455 360.859413 56.322651 360.4355 56.324065 360.473678 56.044662 360.512987 55.757623 360.619318 54.835423 360.927284 53.918313 361.019758 53.399381 360.695673 52.468131 359.229655 48.873502 359.221171 48.83589 359.220605 48.794884 359.028586 48.010689 358.813378 47.000539 358.778029 46.833406 358.544156 45.740114 358.523511 45.297537 359.033111 44.375336 359.424219 43.759122 360.061077 42.755759 360.363387 42.224102 360.60433 41.849961 360.707834 41.765688 361.507017 41.018822 361.887662 40.310133 362.744819 39.288106 363.22727 38.835065 364.216776 38.051153 365.012283 37.445685 365.198081 37.199934 365.525276 36.525464 365.810336 35.722038 365.724365 35.448574 364.809801 33.022461 364.398049 31.930017 364.185668 31.367251 363.447286 29.113926 364.200939 29.022866 364.675189 28.965175 367.798397 28.805112 369.878084 28.006212 369.932664 25.138087 369.947652 24.804387 369.9666 24.382737 368.783378 23.398038 368.712962 23.312351 367.766724 22.159389 367.614579 21.902044 367.295867 21.398948 367.104131 20.843818 367.141743 20.266064 367.189818 20.14531 367.34875 19.791248 367.498067 19.617611 367.790479 19.290698 368.354092 18.864806 368.55205 18.742921 369.338225 18.258773 369.39733 18.182983 369.429286 18.105214 369.422781 17.988419 369.357173 17.707885 369.111988 17.31706 368.405279 16.429926 366.890054 14.420655 366.392049 13.795674 366.254609 13.504394 366.13329 12.858486 366.131593 12.711432 366.126502 12.172421 366.125088 12.047708 366.136683 11.931195 366.338034 11.811572 366.619983 11.643874 366.868278 11.496254 367.115443 10.508445 367.168043 9.992058 367.399936 8.172261 367.490431 7.801797 367.621649 7.541058 367.714689 7.395135 367.791044 7.293894 368.110887 7.038529 368.418853 6.885253 370.14561 6.589165 379.156363 4.988252 382.419272 4.30247 384.328433 3.817191 385.491293 3.53298 387.470871 3.129995 388.570384 2.91818 389.3789 2.78979 389.829678 2.731534 390.595492 2.692791 391.79653 2.645564 392.579877 2.460615 392.467324 2.187433 392.377677 1.962892 392.359295 1.917362 392.359861 1.875508 392.375981 1.835634 392.556122 1.647857 392.507198 0.96264 392.564323 0.47623 392.600804 0.193999 392.781794 0.201634 393.127654 0.172789 393.282627 0.158366 393.668079 0.122451 394.665786 0.027714 396.749715 0 398.516912 0.277141 400.600841 0.507337 405.72625 1.374392 407.993432 1.559341 409.849992 1.81301 412.549005 2.542908 415.931819 3.324276 417.719661 3.795981 420.684785 4.323962 422.031746 4.475542 423.423671 4.840632 425.203311 5.377946 425.379494 5.427435 427.103988 5.871992 427.979244 6.103037 428.488278 6.237931 430.291108 6.744137 430.813151 6.890626 431.546443 7.09424 435.817522 8.579488 437.954334 9.322395 439.617745 9.90128 440.172875 10.096693 445.004458 11.851164 445.659981 12.084188 447.232613 12.642995 448.523581 13.099712 449.267902 13.385336 450.522388 13.867222 455.41562 15.735095 459.259394 16.506281 461.539584 17.698552 463.655752 18.804853 464.694748 19.347823 464.814088 19.378082 465.672376 19.593008 466.074513 19.703581 466.279258 19.779088 466.341756 19.986095 466.596839 20.481555 467.465308 22.300787 468.150241 23.660191 468.701129 24.41639 469.078663 25.364324 469.495505 26.16577 469.789897 26.586855 470.033385 26.892275 470.231625 27.392825 470.335977 27.961812 470.628672 28.889386 472.190276 31.299097 472.869554 32.61495 473.037252 33.050175 473.288941 34.119995 473.573435 34.902211 473.760929 35.259666 474.156279 35.84251 474.739406 36.613697 475.570828 37.767507 476.454568 39.213164 477.261953 40.599151 477.872228 41.707149 479.033109 44.178793 479.323824 44.670576 479.358608 44.729115 479.835403 45.227403 480.142238 45.500019 480.630062 45.828629 481.623245 46.483021 481.848068 46.697381 482.026513 46.867624 482.454667 47.32321 486.520719 47.512967 490.063314 47.397868 490.494013 47.383728 490.415113 48.391616 490.154092 49.292324 490.11959 49.50527 490.027964 49.783542 490.598083 50.020243 492.263473 50.201515 495.356138 50.442458 497.327231 50.682835 498.477931 50.949513 499.257885 51.145491 500.150674 51.271618 500.176126 51.280102 500.347784 51.369183 500.744548 51.521328 509.98578 53.300402 511.650605 53.526357 511.981194 53.571887 511.469332 54.800356 511.458303 54.847866 512.0748 54.888306 514.083788 55.008777 515.065093 55.071276 515.528597 55.094182 516.389996 52.993285 516.567026 52.618579 516.969729 51.836081 517.175888 52.290252 517.511567 52.920606 517.838198 53.421439 518.723069 53.397967 518.606557 53.740434 518.385409 54.392563 518.549432 54.677905 518.661419 54.87049 519.385944 55.893649 520.511193 56.920766 521.570267 57.69365 522.216174 58.087586 522.881312 58.452111 523.960465 58.921836 524.727692 59.19728 525.793553 59.522214 526.514685 59.66842 526.863374 59.744209 527.173884 59.803597 528.2898 59.977799 531.532631 60.350525 532.188437 60.44809 539.549071 60.305561 543.581187 60.198664 543.76048 60.146912 543.962397 60.061507 545.165131 60.029551 546.429799 60.006927 553.411202 59.881931 562.321845 59.788326 564.955532 59.744209 572.583126 59.503549 576.632493 102.338775 572.778821 102.528531 573.26806 104.853403 572.044681 104.958321 572.162324 105.565486 573.101209 105.491958 573.678398 111.415137 573.520031 113.052813 576.214519 114.775893 576.655682 119.617657 575.91532 119.683831 575.950387 121.231578 574.519718 121.614767 575.062405 124.444997 577.164716 124.45235 578.326162 132.153471 579.027498 140.152095 578.162706 144.824746 578.836045 149.116752 579.623634 155.057464 579.217821 163.389788 573.436606 163.853291 550.386691 163.965845 541.203997 164.08066 536.419642 164.048704 523.775799 165.691188 Z" />
<path d="M 238.071887 259.929532 L 239.832863 270.579658 241.067271 277.432954 236.0448 280.562101 233.305913 283.313713 216.914448 310.246711 213.702442 315.401813 212.799755 316.79487 212.652418 316.656017 212.464358 316.540636 212.021781 316.268868 210.961576 315.646149 209.746115 315.030784 208.423758 314.644766 208.033781 314.626102 207.515697 314.72904 207.119216 314.863651 206.630261 314.680681 206.447574 314.620728 205.7222 314.520336 205.267463 314.49347 205.063849 314.500257 204.550573 314.557948 203.720282 314.709527 203.472552 314.751098 203.388279 314.729605 201.035975 314.263556 195.869561 313.149902 195.076882 313.065912 194.299191 313.16178 193.309968 313.455889 190.836627 314.262142 189.977208 314.501105 188.305596 315.120713 187.929759 315.207249 186.210921 315.713172 184.837942 316.378876 181.87904 318.345445 181.839165 318.372027 180.667821 319.403387 179.685102 320.398832 178.968213 321.188683 178.913916 321.377591 178.185431 323.287601 178.130003 323.533917 178.03668 323.845559 177.582226 324.623533 177.493428 324.805654 177.215156 325.089864 176.382036 326.210588 175.935217 326.439653 174.430739 327.173794 174.215813 327.632207 174.109764 327.866363 173.918877 328.286033 171.926856 329.320504 170.555857 330.032303 169.318339 330.431047 168.536689 330.846193 166.144794 331.965785 164.974015 332.513845 164.933292 332.533075 164.204242 332.816438 163.862058 333.053987 163.508562 333.29493 163.154218 333.541246 162.189598 334.205252 161.593463 334.636518 160.792582 335.137351 160.281003 335.457194 158.694513 336.271083 156.79327 337.336661 156.477386 337.530094 152.253534 339.914071 150.710029 340.564503 148.474804 341.251699 148.32577 341.274323 147.945974 341.332296 147.400742 341.499995 147.095038 341.714355 146.697143 341.592752 146.299531 341.471432 145.926239 341.833978 145.658713 341.889972 138.352942 344.290068 135.686169 345.062668 134.947786 345.171262 133.900307 345.3186 130.573203 345.832158 128.006822 346.148042 125.834943 346.456857 124.890119 346.619182 122.296025 346.899151 121.343 347.002089 120.407791 347.102482 119.911482 347.165262 119.413477 347.232002 119.177059 347.260848 117.438142 347.474642 116.948904 347.526394 116.750097 347.907604 116.563452 348.19436 115.943278 348.165232 95.523938 347.291955 95.32994 347.27527 95.208054 347.240769 94.823451 347.132175 94.40576 347.099371 93.453866 345.172394 91.052356 340.242398 90.386935 339.144581 90.117995 338.638657 82.818163 339.938391 82.345892 340.022665 81.520974 339.798972 81.036543 339.54898 80.827839 339.377888 79.08779 336.364689 79.000123 336.031271 79.197233 335.178356 79.172912 334.921859 80.153651 331.933263 80.636668 331.181307 80.908719 330.472618 81.186991 329.748376 81.273527 329.480567 81.257407 329.410999 81.094516 329.15026 80.862623 328.79224 80.562858 328.051312 80.236228 327.066331 80.135835 326.697564 80.025262 326.170148 79.935332 325.790635 79.32534 325.865859 78.911325 325.94589 78.740799 325.396982 78.347994 324.400972 78.335268 324.197923 78.321411 323.974231 78.486565 323.528261 78.381364 323.171937 77.750445 321.512203 77.642699 321.298691 78.732598 321.017591 79.440438 320.720089 80.022717 320.48565 80.557485 320.350756 80.958208 320.249515 80.729708 319.69891 83.163457 319.002664 82.764148 317.93341 87.221308 316.623212 89.750925 315.900667 89.579833 315.627768 89.511962 315.509559 89.220398 315.038419 88.937884 314.5653 86.294583 310.046491 81.611186 302.943202 83.5277 302.230554 86.672117 301.040262 86.451818 300.648872 83.729899 296.746276 83.231329 296.070109 84.761542 295.508475 81.518429 290.485722 82.208453 290.00016 84.150984 289.250183 83.952743 288.978981 83.457566 288.329962 82.417157 286.948783 80.513935 284.742968 79.98567 284.141176 74.718863 285.4641 74.491212 285.135207 71.543621 280.874874 70.028396 278.647566 66.419061 280.217937 65.361684 280.678613 65.621574 278.356286 64.56448 278.426985 63.209318 278.517197 63.169444 276.114839 63.222609 273.506039 63.195461 273.339471 62.850732 271.283539 62.435303 268.913136 58.066942 268.087087 53.822445 267.691737 53.068226 267.788736 53.087173 267.038194 52.408178 266.856921 50.634477 266.915177 49.780714 266.869647 49.323149 266.936387 48.794601 266.931862 48.7601 268.651832 47.656344 268.562468 45.857757 268.416545 41.958838 268.247998 37.40581 267.675052 37.109722 267.651863 36.236729 265.916339 36.714372 265.93868 38.577154 266.20055 37.783627 263.691577 37.294106 262.305873 40.460015 262.306156 39.979826 260.79291 35.084897 260.728433 31.464816 259.93236 26.530861 258.320418 27.333155 256.387219 27.623588 256.007706 29.708648 254.370879 29.749371 254.321106 29.868145 254.05556 29.608821 253.976943 29.384846 253.944704 28.615073 253.833282 25.158448 253.295685 19.34047 253.027028 16.270146 253.066903 16.032597 253.030422 15.631874 252.969338 15.204568 252.972731 14.988794 252.962551 14.351087 252.965944 12.828227 253.097728 12.146686 253.13138 11.015217 253.158246 9.864234 253.227248 7.564531 253.446133 6.515355 253.607327 5.446383 253.756644 3.101432 254.140682 2.99708 254.157933 2.432618 254.232591 0.812758 254.49644 0.70077 254.511711 0.403268 254.546495 0 254.585804 0.817283 253.142692 1.053135 252.674664 1.147306 252.556737 1.182656 252.512055 1.218571 252.467091 1.303693 252.360476 1.592429 252.14753 1.883426 252.026211 2.465705 251.090153 2.937693 250.132886 3.022532 249.96038 3.04261 249.919658 3.969618 246.992994 5.322518 242.039809 5.428567 241.386265 5.364655 240.990633 7.977131 240.326909 9.488114 239.861708 10.113943 239.582305 10.279945 239.522352 11.195358 239.100136 12.469358 238.264189 13.276177 237.475469 14.004661 236.433646 14.1684 236.132467 14.283782 235.920087 14.445824 235.530393 15.507726 233.441656 16.481961 231.614789 17.029173 230.617647 17.710713 229.405015 17.895945 229.107796 18.272913 228.460757 18.682402 227.790245 19.001114 227.352476 19.08058 227.278949 19.269488 227.104463 19.365639 227.016231 19.568687 226.829302 19.63062 226.695822 19.694532 226.557534 19.807651 226.312915 20.188295 225.492239 21.318917 223.051986 21.727558 221.918819 21.850009 221.105778 22.564071 216.530975 23.065752 213.668224 24.625376 210.513909 25.125927 209.362926 25.207372 208.996704 25.190404 208.64038 25.185879 208.605879 25.092274 208.30668 25.011394 208.160757 23.258337 203.008483 23.223836 202.90809 25.493845 200.87874 26.547546 199.936744 28.962065 197.778156 29.602882 197.425509 29.896991 197.342367 30.654038 197.277889 34.877324 197.276475 36.352958 197.171557 37.869031 196.835029 39.693353 196.203827 39.943063 196.072044 40.82454 196.073175 42.77499 196.079396 45.887451 196.295736 46.759879 196.329389 47.517774 196.285838 56.865621 195.340731 57.273414 195.277667 57.325166 195.262114 57.514922 195.219694 62.662672 198.451778 63.124762 198.748998 63.176231 198.773318 63.457896 198.870035 63.666035 198.9413 64.087967 199.055267 65.663711 199.222399 65.976201 199.269344 67.099187 199.433366 68.072291 199.52075 68.83358 199.806375 69.043415 199.721536 71.731964 198.154559 73.654416 197.01206 74.044393 196.780449 74.531086 196.467676 75.086499 196.081659 75.680938 195.399836 76.469941 194.164014 77.174105 193.111444 77.626014 192.615136 78.255237 192.197445 78.91387 191.855827 81.030321 190.948897 81.230259 190.850484 82.359466 190.295354 82.52971 190.210232 83.635162 189.654819 84.267496 189.336956 84.413985 189.187639 84.592147 189.006084 84.832524 188.762879 85.048015 188.564355 85.077709 188.529571 85.636515 187.867261 86.466806 186.843537 86.900334 185.96715 87.888708 184.861132 88.251819 184.4474 88.663006 183.826095 88.970123 183.348169 89.222944 183.089975 89.823321 182.43417 90.218105 181.987634 91.410376 180.559227 90.29644 179.939337 88.93647 179.183987 86.066932 177.592124 86.174677 177.472783 86.295714 177.361079 86.539485 177.164252 87.021088 176.774275 88.432527 173.224328 89.097947 169.994789 89.101058 169.50046 89.224358 168.917899 89.233973 168.38511 89.366604 166.770906 89.430516 165.996325 89.015371 165.872743 84.272303 163.905043 84.654927 163.025545 81.688107 162.568263 78.577908 161.935647 78.76823 161.069157 78.863533 160.318049 79.142653 158.088762 79.192991 157.602069 79.569393 156.421675 80.764775 152.699222 81.25769 151.034397 81.66718 149.584215 82.570433 145.029208 83.054298 142.586975 83.530245 140.401522 84.100646 139.175598 84.366758 137.399351 84.551141 135.746121 84.553969 135.338894 86.239438 135.243026 88.662723 135.079569 92.779961 134.554699 94.390772 134.368336 103.478728 133.939616 111.643354 133.564627 114.983466 133.377981 115.622021 133.35253 116.495863 133.317746 117.105007 132.926921 117.296461 132.803904 117.49357 132.68315 117.544191 132.652325 118.197168 132.25443 119.405559 133.079914 123.970464 132.206637 124.741651 132.0593 124.855901 132.037525 125.281793 131.956079 128.542722 131.505301 129.047797 131.857383 129.555418 132.209182 130.377791 132.090973 131.95212 131.853141 132.102002 131.830517 136.289091 131.274256 136.913506 130.881734 137.026625 130.806228 139.802841 130.421341 146.612587 129.494616 148.943963 129.185519 153.737651 128.472589 154.621674 128.322141 155.958737 128.093641 156.129829 128.104387 156.766405 128.173955 158.132596 128.367106 161.226958 128.842204 163.657313 129.228787 164.030322 129.22709 164.517298 129.195134 164.976843 129.084844 165.038493 129.061937 165.353528 128.893956 165.388595 128.868787 165.64792 128.616249 165.703348 128.556297 166.28393 127.261087 166.612257 126.584638 166.671078 126.509979 166.768926 126.47067 169.150075 126.223506 171.254365 126.004339 175.176191 125.441856 177.830239 125.060929 179.993634 124.752115 180.589204 124.657943 183.093086 124.336969 183.593071 124.366663 184.449662 124.417566 185.017801 124.165594 185.085389 124.072554 186.202154 123.912774 189.511724 123.440786 190.345126 123.321729 191.180791 123.202954 197.2547 122.336465 197.885902 122.246252 201.298693 121.786142 198.444708 153.11663 198.279555 154.984785 197.079366 168.183475 200.51676 175.792688 203.179575 189.459407 214.284155 196.945037 219.186437 200.162699 228.48536 205.85059 226.422075 206.488014 223.838161 207.066333 217.102507 207.268533 217.709107 209.817946 217.952029 210.58687 219.104991 211.558277 220.621913 212.246039 221.653556 213.014963 222.409471 214.69619 218.477465 217.401424 225.719325 222.080013 223.629174 223.491169 215.254996 229.359485 209.733107 233.406872 206.683709 237.922853 202.50369 240.785039 Z" />
<path d="M 811.924205 328.580142 L 787.088993 324.357138 782.93075 324.001945 729.889955 323.289015 727.147392 323.386014 723.462267 323.811906 719.422799 314.656361 738.068437 312.698842 743.15482 310.868298 724.708553 311.290231 717.949427 311.058338 713.260657 310.793357 709.22543 310.34371 702.284749 309.429994 697.384164 308.753827 696.532663 308.167306 695.059575 307.152349 693.986927 307.019434 688.739633 306.431783 676.600582 304.67307 672.902166 303.623611 671.326422 303.371073 668.637025 302.871654 668.253836 302.940939 667.922963 303.145119 666.891038 304.791844 666.443653 305.149016 665.583103 305.1575 664.852639 305.063895 664.495184 304.880925 664.021499 304.542983 663.930439 304.166298 664.622442 302.258268 664.592466 301.911276 664.401012 301.721803 664.090784 301.587757 662.979393 301.340875 667.817197 289.677489 671.633257 282.27698 674.000831 280.712831 675.337329 279.82994 685.365585 265.81934 691.36427 258.903262 691.758771 258.475956 720.68181 224.883943 748.723088 196.015484 755.833447 197.744504 755.528592 200.546737 762.380475 200.993273 762.86632 199.457121 765.237288 199.834654 765.574099 198.992486 774.13973 201.191796 776.215175 201.705638 780.316577 202.762167 781.472933 203.059952 781.314566 203.455019 780.873121 204.876355 780.625391 205.168201 780.120881 205.599749 779.676325 205.892444 779.38363 206.137629 779.109034 206.381965 778.3189 206.914754 778.185137 206.992806 778.450401 207.142123 778.571438 207.210277 778.907966 207.432838 779.02363 207.517111 779.172098 207.584417 780.45543 207.969869 780.991895 208.129932 784.78929 209.156484 786.902348 209.727734 791.123372 210.905299 791.982226 211.143697 792.408683 211.261623 793.504804 209.75969 793.855754 209.783162 796.133965 209.937852 796.883659 209.975746 799.932208 210.115731 801.451675 210.185016 803.613374 210.332919 803.920774 210.360067 804.310468 210.395982 804.641906 210.426242 805.642723 210.510798 806.228395 210.56962 806.899189 210.629572 806.480933 209.746964 812.800875 209.536846 812.895612 208.439029 820.086568 208.396609 820.012758 206.798808 861.093512 203.190604 861.769962 202.995757 861.966789 202.374735 862.049082 201.954782 862.06096 201.825544 861.614141 201.434436 861.093229 201.148245 860.998492 201.096211 860.723048 200.945197 860.578256 200.851592 860.228437 200.649958 860.144729 200.615739 860.009269 200.584914 859.701586 200.565401 859.394752 200.56625 859.236669 200.538253 859.096119 200.484804 859.046064 200.451434 858.928986 200.411843 858.424476 200.240468 852.537213 196.165367 849.70161 194.199646 849.382615 193.86538 849.183527 193.381515 849.20304 192.789904 849.212089 192.181891 849.242914 192.088003 849.40128 191.783996 849.431539 191.620823 849.445679 191.418057 849.428429 191.21812 849.244611 190.71559 849.036472 190.241057 848.895074 189.919234 848.606338 189.221292 848.5297 188.996186 848.656676 188.715369 848.754241 188.50016 848.929009 188.111598 849.513268 187.534409 850.704973 187.571456 851.401502 186.630025 851.986608 185.839043 852.242822 184.830307 855.681913 185.036466 859.494014 185.277974 861.093512 185.326615 866.285095 185.868454 868.248553 186.01466 869.33223 186.159452 879.388766 187.001337 880.824242 187.133969 881.178869 187.163663 894.268683 188.260066 902.766443 188.966209 905.867875 189.146634 908.577351 189.50324 918.518788 191.061451 919.859527 191.369133 921.813087 191.98563 923.220001 191.155056 927.902267 188.318888 927.768787 184.92674 929.089448 185.039576 933.439145 185.406081 935.544001 185.583677 935.838675 185.790119 936.389281 186.176137 937.007757 186.600332 940.450242 189.124576 941.206441 189.560365 941.978476 190.005487 944.248486 191.340005 947.198621 193.171397 942.090746 195.266638 939.505418 196.272546 933.478454 198.321126 933.736082 198.504944 940.468341 203.069849 941.304006 203.644775 941.633181 203.871295 942.016088 204.134296 942.555947 204.50476 946.376814 207.103097 948.30068 208.427434 948.014207 208.858982 947.802675 209.156484 947.436171 209.802675 943.012381 215.503009 941.838492 216.986561 940.777155 218.451731 939.891153 219.620247 939.039086 219.43756 932.451901 218.023577 928.014538 217.096003 919.468137 216.411069 919.5049 216.639852 919.6282 217.12598 919.80212 217.608714 920.539371 219.477435 920.835742 220.327522 921.653873 221.562778 921.671406 221.605763 921.757942 222.145905 921.706473 222.641648 921.402184 224.001334 921.099874 224.653747 920.404759 225.393826 919.730572 226.000425 919.460218 226.334691 919.297893 226.664714 919.347665 227.104181 919.295913 227.638666 919.182795 227.985941 919.161019 228.024684 918.752378 228.520992 918.237122 228.979123 917.861851 229.232226 917.802181 229.370231 917.699243 229.763036 917.581034 229.882659 917.478661 229.927058 917.018268 230.107482 916.613021 230.653563 915.116177 232.321498 914.797465 232.691396 914.630615 232.884263 912.544424 235.011461 911.937259 235.61099 908.461969 238.699413 907.617821 239.449673 907.172133 239.989532 906.233814 240.99544 904.600663 242.747083 895.24716 251.348064 890.266543 255.776378 887.76662 257.899334 887.290673 257.831745 887.137963 257.834573 886.962629 257.860591 886.900413 257.865964 886.816988 257.884628 886.762691 257.904424 886.55229 257.962963 886.505629 257.971164 886.397318 258.007362 886.289572 258.6725 885.963225 259.775407 868.693675 255.898264 859.799151 297.717683 860.063001 299.173521 861.144133 305.141664 849.378939 311.19408 839.218334 316.238043 835.89519 317.77872 828.708475 321.505133 827.813141 321.96185 823.692227 324.04182 Z" />
<path d="M 548.363846 406.101521 L 541.261688 401.873427 541.680227 400.573976 541.689277 399.917605 539.43369 399.863308 539.286635 402.505195 539.102817 403.697183 538.157711 405.458724 532.265923 403.903625 521.226951 401.193301 521.362411 403.158738 521.609293 403.892879 520.726118 404.057749 519.065818 404.080938 518.3905 404.10837 517.627514 404.436697 517.307671 404.651622 516.981606 404.87079 516.042438 405.784506 512.328186 409.177784 510.569473 410.158241 510.32853 414.235322 509.70977 413.74976 507.920233 408.419889 506.904709 408.557046 501.881673 409.080502 498.475104 409.205216 497.120224 409.254988 495.726602 404.62108 493.461965 405.047821 493.171533 409.157989 487.652189 410.222153 482.111069 411.059514 478.867956 411.55865 472.714864 411.897158 468.092268 412.298447 462.609404 412.638651 462.724785 411.248422 463.023419 409.504132 445.805338 409.991108 444.166531 406.20757 435.049163 410.408516 411.532916 421.824173 406.927571 418.004437 401.050206 414.869069 398.844674 412.720662 398.443102 411.451188 399.774227 406.001694 400.468493 403.683043 400.461705 403.117167 400.294007 385.146847 400.300511 384.891481 400.313803 384.729722 401.000716 375.044781 402.078455 347.030934 418.259237 347.731422 418.892419 345.719323 421.496411 343.918756 423.319036 343.174717 430.016512 340.491259 432.158132 339.607236 435.557915 338.210786 436.120963 337.893205 440.744973 335.284122 443.109154 333.72676 448.098537 329.228878 449.681633 327.790008 455.212572 323.917955 457.796204 322.146799 458.203431 321.887757 463.721078 318.628524 468.938961 315.51776 471.114517 317.822271 476.233421 321.481095 484.646059 327.686504 485.940986 328.922609 492.795131 333.389384 503.535752 337.348821 518.067829 343.996242 518.676973 344.230963 521.699222 345.651451 530.979198 349.61202 531.767635 349.946851 532.402514 350.240112 546.31668 356.613502 554.016387 360.348965 555.578274 361.12609 558.453186 362.556759 567.062367 366.664382 563.561909 370.759845 562.066197 383.750397 564.747393 390.760363 562.240117 396.27999 557.976108 398.505883 557.14723 399.085616 553.359733 402.308934 Z" />
<path d="M 854.829281 398.360526 L 847.604107 412.2351 858.56842 415.704451 894.793836 425.016383 894.807411 425.688873 898.45662 426.644726 905.705267 428.414751 911.123087 429.137863 931.332592 432.350151 930.708459 432.546978 929.93501 432.947701 929.323038 433.14481 928.062047 433.66657 928.027263 434.739218 928.248128 435.660853 928.286305 436.160555 927.868049 436.283854 922.882625 437.337837 922.383488 437.437382 922.680142 437.663337 922.976796 437.889574 924.395587 439.046495 924.539531 439.163573 926.249603 440.217557 926.851394 440.790786 927.342895 441.101297 926.963948 441.185287 926.880805 441.203952 926.780695 441.22601 926.743083 441.234211 923.676152 441.172844 919.169503 440.380731 914.868447 440.650802 913.666844 440.867141 912.587974 441.134101 911.57132 441.555468 910.948319 441.919428 910.47322 442.452217 909.783196 443.363954 909.756047 443.414857 909.678561 444.08961 909.631334 444.477324 909.454303 446.296556 909.343447 448.776966 909.440163 450.207352 909.366919 450.747211 909.350234 450.95026 909.179142 451.748878 908.955167 452.739232 908.821687 453.063034 908.460556 454.493137 908.300775 455.844906 907.866117 456.433689 907.499047 457.970972 906.953532 458.122551 906.615872 459.313974 906.97559 459.88183 905.959501 462.37129 906.077144 466.407648 906.357962 467.035739 906.426116 467.307224 907.139612 467.804381 909.573926 469.25428 912.027471 471.113103 912.396804 471.354329 912.438658 471.507039 912.496348 471.879482 912.688933 472.937708 912.768116 473.0118 913.069577 473.405736 913.381219 474.15232 913.391683 474.222736 913.32466 474.876845 913.538737 475.390687 914.434354 477.538245 914.442273 477.62563 914.423325 477.7116 914.317276 477.902205 914.613082 478.196596 914.967709 478.742111 915.665934 480.247438 916.500467 481.111948 917.636179 482.108241 918.318285 482.815799 916.905432 482.623214 915.092422 482.427519 910.560887 482.005303 904.19287 481.165679 900.92487 480.814446 901.029788 480.278829 898.978663 480.095576 898.869503 480.542395 894.244928 480.129795 889.591224 479.626699 884.916594 479.177335 884.197725 480.670785 879.202403 481.120998 878.660847 481.282757 878.41651 481.341862 878.132017 481.426418 877.864774 481.487219 870.456347 481.739191 868.395607 481.832231 868.315293 481.835908 868.163431 481.806214 865.909258 481.368727 862.634189 480.910314 862.276734 480.248004 860.120691 479.908082 855.987899 478.560556 855.658158 479.092214 854.445243 478.827233 851.720496 478.327814 849.147046 477.794459 848.08175 477.625912 846.927374 477.243288 846.466415 477.383556 844.026728 476.959643 841.918195 476.572494 841.582232 476.524419 837.928498 476.015102 829.948539 474.297677 818.379607 471.986662 808.648287 469.963817 794.95951 467.302134 782.441229 464.966515 775.073242 463.934873 770.152578 463.635108 770.29737 459.080384 760.151754 458.036864 760.239138 457.298764 751.728086 456.555291 751.2643 455.769116 744.808898 455.200695 745.108663 452.972539 723.125739 451.72993 719.005108 435.301701 703.687704 434.750247 699.813388 434.490922 697.951455 434.237819 696.073401 433.797788 694.162544 433.060536 693.28955 432.642563 692.269785 432.161808 691.213822 431.410135 690.013349 430.406489 689.560026 429.996151 688.295359 428.492803 676.475303 409.874878 664.322678 384.504333 662.724028 376.409558 664.389418 367.114594 665.24714 362.829941 666.720794 358.042474 670.895157 354.471317 677.888156 350.161777 679.04536 349.448846 682.115119 351.30569 682.698246 351.658337 687.838642 354.682849 693.690839 360.399585 696.369489 360.105477 701.389415 359.817307 705.103667 359.779129 709.142005 359.946262 713.059871 360.242633 723.419565 360.966875 728.50821 361.313867 733.587805 361.648416 738.315885 361.957795 744.86065 362.453538 747.651571 362.813256 750.420151 363.252439 755.503423 364.29002 760.284951 365.347115 765.545536 366.57417 769.181737 367.414924 769.655139 366.439558 770.453757 366.595379 769.97272 367.561979 772.55522 367.967227 780.09147 369.039875 783.296123 369.585107 785.925285 370.249396 786.70948 369.315319 789.634164 370.113371 789.333834 371.251062 792.994921 372.639029 795.280202 373.696972 800.245547 376.673125 814.487192 385.52636 815.191073 386.063957 815.995913 386.744649 816.307272 387.086833 816.755505 387.701633 817.101082 388.314736 817.36069 389.109112 830.854337 389.207526 Z" />
<path d="M 401.605901 454.609932 L 413.93386 451.000597 418.49113 450.752302 420.175468 450.430762 422.040512 454.369272 424.085981 454.232399 425.891073 454.40943 430.472098 455.003585 435.035589 456.378543 441.653599 458.34794 446.707177 459.111491 461.326638 459.59366 465.838943 459.191806 471.193417 459.031177 476.487655 458.870266 470.076936 474.935667 474.056169 475.581857 483.182303 477.060319 483.451526 477.919173 482.011242 477.880147 482.011525 478.903023 487.399086 479.046966 488.132943 480.024029 488.050932 480.327753 488.034813 480.436347 488.024632 480.676158 488.011906 481.220259 488.274624 481.64304 489.166565 482.437699 486.330397 483.271101 485.680247 483.42268 485.62086 483.648352 485.619728 483.672107 485.598519 483.733191 485.583813 483.754401 485.395753 484.183404 485.069406 484.711102 484.921786 484.904253 484.877952 484.961943 484.676318 485.1517 484.194433 485.588904 483.956035 485.848794 483.798517 486.010554 483.447566 486.514215 483.117543 487.117137 482.806183 487.848167 482.322884 489.594154 482.298563 489.62809 481.828272 489.994029 481.61674 490.623534 481.556505 490.816684 481.406339 490.992584 481.389937 491.012097 480.951885 491.524525 480.741767 491.770558 480.038452 492.593497 479.662049 493.035791 478.758513 494.556106 478.712135 494.632744 476.380193 498.479345 476.002659 499.110831 474.909367 502.656819 474.897772 505.024394 474.233765 505.394857 473.529601 505.937544 473.600866 506.938079 472.040676 506.861159 471.886835 506.853523 467.979149 506.97456 467.926549 507.341065 467.916651 507.410916 467.573336 508.884287 465.283531 508.664554 462.513253 508.398442 461.065051 508.58933 458.398843 511.443315 458.581813 513.845956 456.48233 513.521871 456.743068 512.777267 456.979486 512.102231 455.534678 512.030401 455.527608 511.792569 453.736656 511.777015 453.038148 511.780126 450.073024 511.736575 449.178255 511.699811 448.500391 511.616386 447.554436 511.515711 447.104506 511.520235 447.702622 512.468453 446.857625 512.67744 446.698127 512.375695 445.289234 512.67348 445.358802 513.445798 443.36763 513.398854 442.320151 513.292523 441.8377 514.489601 441.519836 515.204511 440.884392 516.63518 440.664659 517.093311 440.077007 517.038731 439.883574 517.011583 439.279803 516.962376 439.211649 517.099533 439.045082 517.369603 438.608443 518.479015 438.32395 519.282441 438.073392 520.223588 437.899472 520.820855 437.451805 522.359835 437.366966 522.590597 426.387664 520.03666 420.038311 526.245745 418.575686 527.749659 417.646699 527.711764 417.240603 527.672172 416.809338 527.630318 408.40179 526.293821 405.647915 525.858031 405.293005 524.103277 404.033429 516.856045 403.713868 516.736139 402.330144 516.217772 400.993363 512.987385 401.043984 512.983709 402.319115 512.902263 402.741047 512.85645 402.677418 512.4874 402.508588 511.766834 402.147457 510.812112 402.01426 510.249347 402.013977 509.489472 402.013694 509.253054 402.00719 509.211483 402.054982 508.816981 402.21957 508.312472 402.341738 508.054844 402.440717 507.912314 402.691558 507.656383 403.227175 507.174497 403.687568 506.722305 404.03456 506.343358 403.701991 506.161237 403.619131 506.115706 403.511103 506.041048 402.999524 505.729406 402.778659 505.596774 402.399994 505.408715 401.750693 505.080387 401.431981 504.837465 400.979506 504.565132 400.233771 504.130473 398.901516 503.478909 397.544091 502.916709 396.613407 502.486576 395.804043 502.13308 395.485331 501.91165 394.822455 501.617824 391.323411 500.229292 389.831092 499.571789 388.804823 498.856314 386.0501 497.918842 384.772424 497.600979 383.771606 497.140586 383.069139 496.617977 382.995895 496.590829 376.625332 494.086098 370.452444 491.697031 370.020614 491.623786 369.592459 491.458068 376.30153 487.05266 378.572388 484.3084 383.255785 475.521904 390.627731 476.697773 395.223461 474.214535 397.817273 470.721712 401.107896 467.721804 402.313459 466.995582 401.365524 463.529342 Z" />
<path d="M 216.914448 310.246711 L 233.305913 283.313713 236.0448 280.562101 241.067271 277.432954 239.832863 270.579658 238.071887 259.929532 240.423342 261.225024 242.456085 259.625808 247.744102 262.448402 255.192969 262.422951 255.18505 263.515112 259.736099 263.555835 259.719979 264.655631 263.482307 264.605011 272.934506 265.35725 275.604391 266.996623 277.121312 265.215569 279.851998 264.183078 284.554908 264.223518 284.463847 264.770164 287.846379 264.867163 287.952145 263.724664 289.864417 263.839197 289.743097 264.972646 291.562612 265.070777 291.683932 264.169786 297.228445 264.496417 298.047707 264.496417 298.229828 264.253494 300.383891 264.152253 309.243348 264.354735 310.790812 263.524727 316.525365 263.484287 316.585883 263.342606 331.210152 263.362967 331.362014 263.059243 333.455275 263.403407 334.062157 262.816321 336.398341 262.452079 336.641264 262.148355 336.800761 261.629706 339.79671 262.148355 342.516649 262.132518 342.311339 262.237153 343.953257 265.670306 345.347728 268.674739 358.339411 283.695206 365.333823 290.859296 365.093446 291.458543 351.361966 315.481562 350.464369 316.954367 349.641714 318.573944 348.752601 320.323325 347.834642 322.082321 347.02952 323.76581 345.523344 327.306425 344.892708 329.38385 344.974719 331.302909 345.449817 333.823477 325.587587 331.010215 315.145599 334.109384 301.534591 335.30618 292.515071 336.54483 292.117176 336.457446 291.308943 336.204343 290.572823 335.886479 290.039186 335.738859 290.00525 334.82995 288.561573 334.839 287.230165 334.828537 286.568138 334.737476 286.263849 334.617287 286.192018 334.566667 286.061932 334.412542 285.971154 334.149541 285.96465 334.079408 286.042985 333.695087 280.989972 332.737254 280.57115 332.668252 279.218533 332.439752 278.513804 332.295243 280.793994 328.621996 273.998388 327.429442 273.992449 328.154533 265.498083 326.806724 265.088876 326.741963 265.442937 325.819197 264.472379 325.743973 259.212925 325.337594 258.499428 325.282449 257.099019 325.30479 256.334336 325.317516 255.647989 325.33109 255.519316 325.325717 255.445223 325.72446 255.195797 326.614422 255.073629 326.939072 254.086951 326.647792 252.192778 325.995662 252.112181 325.961161 251.738606 326.111044 251.122109 326.779858 250.832525 327.050212 250.768331 327.143535 250.491473 327.547086 250.021747 328.143221 249.52657 328.526128 249.262438 328.767636 248.972571 329.026678 248.459012 329.601321 247.786239 330.612602 247.643144 330.888895 247.532005 331.056028 247.436136 331.10382 247.366851 331.175651 247.172004 331.213546 247.145704 331.218636 246.964997 331.253703 246.725468 331.298102 246.606694 331.137473 246.337188 330.673687 246.261399 330.454519 246.121131 330.054362 246.12 330.020709 246.323331 329.356136 246.315413 329.196356 246.03912 328.769616 245.401697 328.178288 245.066017 327.866363 244.725812 327.347431 244.017689 325.903188 244.006377 325.843235 244.112709 325.367005 244.139009 325.320909 244.431704 325.020014 244.486566 324.983816 245.380487 324.6142 245.222686 324.389094 243.609613 324.474216 242.540076 324.151262 240.794372 323.624129 240.364238 323.494042 239.977937 323.330869 239.727097 323.245464 239.061959 322.987553 237.619695 322.764144 236.8881 322.81024 236.144345 322.85775 234.476126 322.963516 233.50076 322.629533 233.046023 322.567317 232.612213 322.550915 231.996282 322.585982 231.648159 322.642541 231.198795 322.72738 230.693154 322.625573 230.391693 322.61709 230.309682 322.625573 230.050357 322.687789 229.620506 322.875849 229.501166 322.927883 228.746947 322.871889 227.906192 322.592769 226.777267 322.236445 226.51257 322.146516 225.249599 322.05291 220.126736 321.299822 218.572768 321.134386 218.97547 320.697182 219.464709 320.207944 219.826406 319.858973 220.594765 319.134165 220.028323 318.844298 219.493554 318.524738 216.548791 316.814666 214.131728 315.573753 213.702442 315.401813 Z" />
<path d="M 555.276247 430.423739 L 560.512512 431.093968 564.415955 431.337456 568.288291 431.304651 573.641634 430.779215 578.23595 429.617486 584.175531 428.072567 591.05032 426.56017 594.036371 425.530224 594.817456 424.522902 600.772307 422.802084 605.325052 420.458264 611.332504 416.2757 613.983723 413.870231 616.97741 411.276136 620.682613 408.573448 624.353315 406.878364 625.885225 409.769678 625.22037 423.835141 633.648562 420.507471 634.629583 420.120039 639.526775 428.157972 642.908459 433.708707 643.272984 434.306822 639.988016 435.478449 638.791786 436.042911 639.475023 436.646682 639.290074 436.726148 637.902673 437.521938 637.333969 437.743085 636.832287 437.814916 636.27942 437.858184 635.584305 437.794271 635.081493 437.581891 634.090856 437.962536 632.321962 438.918671 621.31325 443.112547 621.100586 443.192862 607.717795 448.250682 604.113833 449.379606 604.137023 450.67227 603.524485 450.928767 600.882032 450.659544 591.935757 454.035855 576.936499 459.463573 573.594407 460.650754 572.621021 460.957306 571.966912 461.133488 571.284806 461.278846 570.013917 465.555015 567.281818 465.07822 564.831101 464.475863 564.947613 463.98012 547.637906 461.746591 544.309388 468.841679 541.932765 474.006114 541.042803 475.911033 539.01204 480.236692 538.939926 480.386574 536.94932 484.515973 536.607136 485.203169 536.347528 485.723798 536.30115 485.816838 536.209241 486.035722 535.730183 487.01533 535.33851 487.807727 534.830607 488.83032 534.120504 490.239779 533.996922 490.517203 533.755131 491.05989 533.208484 490.958931 533.110354 491.190542 533.063693 491.301398 532.998649 491.438555 532.588594 492.364997 530.809802 495.948597 529.743376 498.15215 528.947868 499.5223 528.7994 499.478749 528.400657 499.362237 527.974199 499.221121 527.802824 499.183792 527.126092 499.113376 526.880907 499.509008 526.099822 500.826559 524.516726 503.551871 524.325838 503.880481 522.777243 506.805448 522.702019 507.078347 522.140102 508.240358 521.708554 509.084224 517.853186 508.519196 518.261262 506.234481 517.696799 504.914669 518.520869 503.155956 518.115339 500.900651 517.653814 498.332857 515.535949 495.249241 516.729069 493.987119 516.400742 493.3381 516.237285 493.171816 515.567623 492.693041 515.0436 492.30363 514.610355 491.823158 514.303804 491.548845 514.103018 491.390196 513.998101 491.38454 513.532051 491.399246 513.441274 491.388782 513.355869 491.365876 513.120582 491.255019 512.788862 491.293763 512.400016 491.350322 512.256921 491.365876 512.023331 491.392176 511.938209 490.88908 511.865813 490.339324 511.742796 488.482197 511.626567 486.90815 512.349961 484.484582 512.053024 482.031037 512.077911 481.643323 513.438446 481.501359 521.931681 461.727644 532.268468 448.864916 535.801448 440.855829 540.278969 442.003136 540.811193 441.511069 542.371382 439.577588 546.826562 436.341544 Z M 556.920427 476.669211 L 556.838133 476.726336 556.764889 476.78035 552.932145 477.997225 551.406739 477.192668 553.297235 474.528722 553.405263 474.357065 554.358006 475.049351 555.65576 475.878794 Z" />
<path d="M 611.859919 366.161004 L 626.148226 362.870663 659.106774 357.231696 665.099238 355.991915 670.895157 354.471317 666.720794 358.042474 665.24714 362.829941 664.389418 367.114594 662.724028 376.409558 664.322678 384.504333 676.475303 409.874878 688.295359 428.492803 689.560026 429.996151 690.013349 430.406489 691.213822 431.410135 692.269785 432.161808 693.28955 432.642563 694.162544 433.060536 696.073401 433.797788 697.951455 434.237819 699.813388 434.490922 703.687704 434.750247 719.005108 435.301701 723.125739 451.72993 720.986099 451.981902 720.995714 453.29521 719.897049 453.265799 717.981101 453.214613 717.727998 453.198494 714.641271 453.003647 714.38025 454.337034 710.424206 453.985234 710.755643 455.552494 710.735848 455.658826 710.67844 455.742533 710.574371 455.842926 710.365384 455.857632 700.90866 456.476674 699.470922 456.452353 697.516513 456.085566 695.92663 456.080758 695.054484 456.204341 692.400437 458.145175 686.281846 460.653582 682.245488 454.879721 678.264558 455.752149 676.926081 456.236579 676.667605 456.502126 676.535821 456.724687 676.518571 456.939612 676.549961 457.073658 675.865593 457.150861 675.811862 457.034915 675.494281 456.838654 675.051138 456.67548 674.645325 456.650311 673.87838 456.683681 670.598503 457.375402 670.800986 457.887264 670.737074 458.375371 670.529784 458.685599 669.899713 458.938985 667.985179 459.011098 666.939113 459.014209 664.780526 459.254586 662.917461 459.739583 661.081261 460.274352 661.184765 460.625585 660.026429 460.994069 658.469068 461.393378 658.060992 461.402428 657.721353 461.399883 657.301965 461.364533 656.799718 461.277432 656.060205 461.056002 655.510165 460.730503 655.057973 460.197148 654.753118 459.514759 654.544697 458.741593 654.468907 457.931098 654.359182 457.304703 654.240125 456.856753 651.205998 451.30828 644.219504 439.728884 642.915246 437.553329 642.09259 437.654287 641.377114 437.649197 640.830468 437.471318 639.475023 436.646682 638.791786 436.042911 639.988016 435.478449 643.272984 434.306822 642.908459 433.708707 639.526775 428.157972 634.629583 420.120039 633.648562 420.507471 625.22037 423.835141 625.885225 409.769678 624.353315 406.878364 620.682613 408.573448 616.97741 411.276136 613.983723 413.870231 611.332504 416.2757 605.325052 420.458264 600.772307 422.802084 594.817456 424.522902 594.036371 425.530224 591.05032 426.56017 584.175531 428.072567 578.23595 429.617486 573.641634 430.779215 568.288291 431.304651 564.415955 431.337456 560.512512 431.093968 555.276247 430.423739 546.826562 436.341544 542.371382 439.577588 540.811193 441.511069 540.278969 442.003136 535.801448 440.855829 534.505108 425.599792 534.501997 424.551465 534.568171 422.309735 534.322421 419.787188 535.179861 414.377003 548.363846 406.101521 553.359733 402.308934 557.14723 399.085616 557.976108 398.505883 562.240117 396.27999 564.747393 390.760363 562.066197 383.750397 563.561909 370.759845 567.062367 366.664382 570.401349 363.961976 585.829043 354.82255 586.432814 355.331302 587.345117 356.119739 588.807176 357.19267 599.546666 361.306232 600.139408 361.58818 606.662963 364.056996 Z M 597.189272 388.73073 L 598.415479 388.57095 599.150467 387.960957 Z M 626.212986 406.259322 L 624.578138 403.956791 624.472372 403.83434 Z" />
<path d="M 639.955778 212.126981 L 637.919924 209.08833 636.696545 209.099076 635.681022 209.36745 635.153889 205.614737 635.07612 204.499387 634.958193 202.906676 634.890888 199.867459 634.853841 199.463342 633.769599 187.673828 633.001805 179.16815 632.2753 170.691034 632.006644 167.467434 631.820563 163.510825 631.835551 162.685906 631.317468 155.750316 639.449006 155.604676 645.050927 155.03993 645.999144 152.170674 645.915437 141.298836 647.026262 141.371232 648.921283 141.513479 649.237733 139.74911 648.172155 139.523721 649.545699 134.087801 649.883641 133.09773 649.8876 132.868382 649.893256 132.459457 635.71722 133.564344 635.252585 133.622601 634.942074 133.687927 639.592667 105.704339 640.32511 101.537611 627.54609 100.144554 628.313601 98.292801 639.386225 97.888402 640.978088 97.82251 641.680555 97.817985 641.90651 97.816572 642.12596 97.815158 642.873957 97.810067 642.825599 98.104741 642.96728 98.106721 645.354085 98.139243 645.831163 98.145464 649.41844 98.194954 653.750038 98.225213 656.124682 98.25321 659.791991 98.304396 661.803807 98.331262 663.289056 98.343987 663.616251 98.342008 664.034791 98.33918 670.55976 98.202023 670.664112 98.198064 674.314453 98.397436 677.43964 98.722087 681.681591 98.416949 680.737898 94.420182 681.64002 94.119569 682.280838 93.545492 682.207593 91.235325 682.135197 88.959943 689.017622 87.503539 690.991543 87.014301 690.532847 84.199625 693.311042 84.493451 695.787211 84.171628 695.82454 82.302624 707.777228 82.93015 708.039098 82.238146 709.832029 82.216654 705.939615 76.878582 704.573423 75.080843 703.492291 73.718328 702.452448 72.505979 701.763555 71.703967 700.263601 70.05809 700.123899 69.870313 699.492414 69.022771 699.097064 68.491679 698.158745 67.230688 697.132758 65.721967 696.724682 65.01752 696.031547 64.615101 695.338412 64.212398 694.921853 63.49975 693.684334 61.345404 693.397295 60.853055 692.673336 60.293966 693.290964 59.988263 693.337343 59.974406 696.1441 59.13761 697.759436 58.705497 697.527542 58.009817 697.466741 57.81497 697.398304 57.622951 697.120315 56.789549 697.576749 56.718849 699.894834 56.359698 702.361953 56.099242 702.908599 57.544899 703.1453 58.16988 701.899863 58.354829 701.737255 58.40856 701.445408 58.455787 700.691755 58.493682 700.546398 58.494248 698.976027 58.876872 698.87422 58.893839 699.614582 61.354454 700.089398 63.034832 700.362862 63.725139 705.025333 63.698556 710.104928 63.66151 710.841614 63.656137 711.80284 63.744935 713.952944 63.942893 714.978365 62.039388 715.266817 61.503771 715.356464 61.336072 715.446111 61.168657 715.748986 60.598821 717.055507 58.171294 717.414942 57.501914 717.601587 57.520013 723.481215 58.116997 725.090046 58.095787 726.890613 58.397531 733.712236 58.330225 734.939857 58.471341 737.163771 58.692205 739.273717 58.897516 739.498823 58.908262 739.759279 58.941349 739.869004 58.950399 739.682076 58.590116 739.622123 58.459464 739.618164 58.058458 739.598651 57.896981 739.465736 56.816132 739.260426 55.364253 740.557897 55.282808 740.620678 55.278848 740.799123 55.252548 740.940521 55.25877 741.527607 55.335973 744.708223 55.753381 745.99919 55.180718 746.190078 55.075235 746.276048 55.009626 747.021783 54.709861 755.155018 56.784741 756.294406 57.101473 756.876967 57.227601 758.585908 57.549424 760.92492 57.989455 763.975449 58.673823 764.668583 58.84237 767.576583 59.396652 767.937431 59.468765 768.192231 59.5208 769.299098 59.757218 770.024471 59.512599 770.146922 59.537768 772.768165 60.077344 777.780738 61.342011 780.161038 61.741603 780.692131 61.48652 782.815086 61.966709 784.97226 62.228296 787.778452 63.224023 788.038342 63.316781 787.557588 63.836561 786.739457 64.721149 785.86816 65.436908 785.162016 66.352604 784.737821 67.246807 784.527138 68.044294 784.628096 69.239676 784.465771 69.507202 784.443147 69.576487 784.403273 70.103055 784.361136 70.42516 784.828316 70.93278 784.949636 71.065412 785.454994 72.100448 785.675292 72.535107 785.907751 73.035374 786.543478 74.401565 787.858483 74.656082 788.727518 74.891652 789.469577 75.107992 790.078721 75.356287 790.340591 75.462902 790.74697 75.628338 791.528054 75.944504 792.99888 76.539509 797.418428 77.90768 797.593196 77.963673 797.760329 78.017122 798.099968 78.195567 797.290887 78.954028 797.179747 79.100234 797.761743 79.421773 797.833856 79.43761 797.969316 79.496997 798.078193 79.578443 798.2589 79.817406 798.908484 80.336621 799.305531 80.541931 800.376482 80.856684 802.433546 81.593087 805.587012 82.660362 809.040526 83.934361 809.662396 84.164275 809.700291 84.174456 809.768728 84.203584 812.318141 85.05565 812.478204 85.108816 812.624127 85.15774 813.812722 85.554787 815.459164 86.143852 815.694734 86.228126 816.377971 86.472462 818.698601 87.355354 818.849615 87.381371 819.411532 87.45914 819.379576 87.877679 819.353559 87.924058 819.38608 88.534051 819.409552 88.977476 819.494109 92.653551 819.392302 95.142163 818.700298 97.587506 818.962451 98.334655 819.153621 98.841427 818.618853 99.875332 817.508593 102.901257 815.541458 106.108738 813.967694 108.40222 813.924992 108.443791 812.94595 109.10299 812.538722 109.39625 812.352359 109.524923 812.16741 109.651899 811.146514 110.3538 806.323415 112.630031 804.175857 113.833049 804.1439 113.844078 803.475652 114.079082 802.767529 114.352264 802.400741 114.542869 799.306379 116.049327 798.196119 116.684489 797.979497 116.808636 796.649221 117.56936 796.608215 117.589155 794.9383 118.316509 794.087082 118.592801 792.492674 119.431576 792.246075 119.534514 791.892579 119.781961 790.547598 120.785324 789.838626 121.802262 789.507189 122.152081 789.068571 122.50388 788.948665 122.644713 788.549921 123.462279 788.488272 123.538068 788.001013 124.237424 786.983227 126.74866 786.74483 127.881826 786.455246 129.50508 786.297163 130.541247 785.856565 130.58197 785.416533 130.622975 785.361388 130.980996 785.314161 132.911084 785.193124 134.692703 785.081136 135.838879 784.843587 137.383232 784.61537 138.162903 784.353218 138.720012 784.261309 138.83002 784.173076 138.921646 783.727388 139.862228 781.804653 143.809505 781.130466 145.228014 780.876797 145.875619 780.344291 146.800364 779.634754 148.186351 779.113276 149.205268 778.513182 150.251616 777.62322 151.73545 776.627493 153.395184 776.103188 154.388367 775.859982 154.869121 775.642512 155.372217 775.024601 156.690332 774.699667 157.262996 774.459573 157.782211 774.314781 158.063028 774.212691 158.244018 773.286815 159.775928 772.638362 160.786643 771.918927 161.95318 769.859601 165.570151 769.604235 166.046663 768.779034 167.344135 767.103181 170.019958 764.706761 173.441233 763.275527 175.363968 762.757726 176.107723 762.018212 177.048023 761.952603 177.129468 761.05642 178.266594 760.924637 178.378016 760.654566 178.868103 760.290041 179.529281 760.131109 179.732895 759.553073 180.467601 759.462861 180.582417 759.223049 180.891513 759.732932 181.082967 760.169853 181.244727 760.137614 181.289691 760.190497 181.309204 761.007779 181.61717 761.66104 181.868293 762.925141 182.354421 763.131866 182.433604 763.18079 182.362057 763.49328 182.478852 763.784561 182.587446 764.228834 182.753447 764.481089 182.847619 764.842503 182.988734 764.468081 183.420282 764.244106 183.678476 764.146541 183.764446 764.595339 183.968625 765.066761 184.229081 765.21325 184.328625 765.043006 184.460974 763.387514 185.745437 762.872258 186.24627 761.922627 186.945909 757.406363 193.402442 756.749426 194.374415 756.788169 194.737526 756.830023 195.006465 756.785058 195.288979 756.236715 196.366435 755.833447 197.744504 748.723088 196.015484 720.68181 224.883943 691.758771 258.475956 686.371776 256.05154 683.763541 254.140965 682.357476 252.361042 678.367779 247.849302 676.806175 246.877613 673.125575 244.658789 676.347762 243.990823 677.343772 241.790099 676.809851 238.623624 685.784407 230.699941 693.008733 224.636213 694.626047 222.42248 693.642197 221.219463 691.170271 220.524065 690.550946 217.734558 687.588367 221.541003 685.619253 220.723437 682.736423 223.85626 679.621417 222.638537 677.321148 221.589078 673.27263 221.871592 669.523593 221.345873 661.165817 219.217544 653.376464 217.073097 649.398079 216.443025 646.490645 218.190992 646.577747 222.164004 642.117759 222.454153 641.234867 214.579112 642.080713 213.096691 Z" />
<path d="M 401.605901 454.609932 L 402.203734 449.123392 402.314024 447.890681 401.951479 439.356441 405.234466 435.354584 412.754032 429.555836 415.762141 426.890194 417.643871 424.393664 414.28877 423.277465 411.532916 421.824173 435.049163 410.408516 444.166531 406.20757 445.805338 409.991108 463.023419 409.504132 462.724785 411.248422 462.609404 412.638651 468.092268 412.298447 472.714864 411.897158 478.867956 411.55865 482.111069 411.059514 487.652189 410.222153 493.171533 409.157989 493.461965 405.047821 495.726602 404.62108 497.120224 409.254988 498.475104 409.205216 501.881673 409.080502 506.904709 408.557046 507.920233 408.419889 509.70977 413.74976 510.32853 414.235322 510.569473 410.158241 512.328186 409.177784 516.042438 405.784506 516.981606 404.87079 517.307671 404.651622 517.627514 404.436697 518.3905 404.10837 519.065818 404.080938 520.726118 404.057749 521.609293 403.892879 521.362411 403.158738 521.226951 401.193301 532.265923 403.903625 538.157711 405.458724 539.102817 403.697183 539.286635 402.505195 539.43369 399.863308 541.689277 399.917605 541.680227 400.573976 541.261688 401.873427 548.363846 406.101521 535.179861 414.377003 534.322421 419.787188 534.568171 422.309735 534.501997 424.551465 534.505108 425.599792 535.801448 440.855829 532.268468 448.864916 521.931681 461.727644 513.438446 481.501359 512.077911 481.643323 511.553888 481.61674 510.538648 481.620699 509.342135 481.587612 508.535315 481.565271 507.476242 481.543496 507.125574 481.535578 506.003436 481.509843 503.479475 481.447062 502.706874 481.427832 502.369781 481.419348 502.006387 481.40945 501.507533 481.395593 501.171005 481.369293 500.861625 481.370141 500.229857 481.345538 499.763243 481.369293 498.141403 481.451304 497.350421 481.490613 495.118023 481.889922 493.494487 481.99795 491.562137 482.205523 490.229033 482.305916 489.440595 482.403764 489.328042 482.417621 489.166565 482.437699 488.274624 481.64304 488.011906 481.220259 488.024632 480.676158 488.034813 480.436347 488.050932 480.327753 488.132943 480.024029 487.399086 479.046966 482.011525 478.903023 482.011242 477.880147 483.451526 477.919173 483.182303 477.060319 474.056169 475.581857 470.076936 474.935667 476.487655 458.870266 471.193417 459.031177 465.838943 459.191806 461.326638 459.59366 446.707177 459.111491 441.653599 458.34794 435.035589 456.378543 430.472098 455.003585 425.891073 454.40943 424.085981 454.232399 422.040512 454.369272 420.175468 450.430762 418.49113 450.752302 413.93386 451.000597 Z" />
<path d="M 412.754032 429.555836 L 405.234466 435.354584 401.951479 439.356441 402.314024 447.890681 402.203734 449.123392 401.605901 454.609932 401.365524 463.529342 402.313459 466.995582 401.107896 467.721804 397.817273 470.721712 395.223461 474.214535 390.627731 476.697773 383.255785 475.521904 378.572388 484.3084 376.30153 487.05266 369.592459 491.458068 365.065449 489.643643 364.953179 489.345576 362.421582 488.378976 358.628995 486.746673 356.936739 488.764994 359.660354 489.692567 357.241594 493.01345 354.335291 492.049113 356.107296 489.354625 354.705472 488.897626 355.86098 487.44405 356.776393 486.116602 355.045111 485.321378 354.649196 485.207694 354.439926 485.111543 351.47961 483.892689 346.580721 481.883983 345.367241 481.648413 344.683155 481.433771 339.009121 478.996345 335.444468 477.596501 329.649962 474.986005 322.265856 471.792381 318.257778 470.139717 317.640432 470.691736 318.587801 471.219717 317.263747 472.431784 315.663117 471.566426 313.918827 470.473417 315.745694 469.043313 311.524669 467.23907 311.623366 466.786595 312.344214 465.933397 312.693186 465.563499 313.019533 465.061818 313.944844 463.82543 315.583086 461.894777 317.229246 460.090816 319.421203 457.309227 319.819947 457.112967 321.095926 456.885315 321.422273 456.795386 321.822431 456.659643 322.399902 456.42266 322.85775 456.156831 323.228779 455.868095 323.316446 455.794285 324.995128 454.028219 325.457217 453.503349 325.650933 453.264103 325.857375 453.008454 326.600282 452.090213 326.968766 451.672522 327.100267 451.312239 327.234878 451.133795 326.916166 451.100142 326.80135 451.082043 325.827681 450.92707 325.267178 450.856937 322.931842 450.72176 322.275188 450.610621 320.859791 450.289929 318.754086 449.528357 318.616364 449.471232 318.108461 449.259983 318.466482 448.751232 318.532656 448.65904 318.596851 448.565717 318.932813 448.087791 316.780447 447.224129 315.727878 446.780138 315.421892 446.650335 315.326306 446.6246 314.928128 446.515441 315.033894 446.265166 315.193675 445.987176 315.296047 445.843798 315.534728 445.612471 316.077415 444.805934 316.260101 444.474497 316.458625 443.793522 316.595215 443.401 316.609921 443.373003 316.84945 443.030253 317.0163 442.711259 317.030722 442.600685 317.011775 442.365964 317.433991 442.250583 317.873174 442.131243 317.991949 441.846183 318.601376 440.54645 318.778406 440.078986 318.785193 440.048727 318.816867 439.431099 319.167535 438.554429 319.221549 438.403698 319.244738 437.65259 319.411306 437.456612 319.699475 436.779597 319.947488 435.657459 320.736491 432.410387 320.774103 432.037661 319.965304 432.051235 319.987645 431.677943 320.047315 431.314549 319.647724 430.861226 319.18931 430.340597 317.81209 428.775883 313.623021 423.286515 313.507923 423.137198 312.519266 421.840292 312.218936 421.688713 311.835746 421.545052 312.234772 421.065429 312.817333 420.369183 315.091019 417.670737 318.466482 413.682737 322.424222 409.38366 324.290398 409.240848 325.165937 409.569175 326.402607 410.108186 327.252129 411.635571 339.253175 430.904211 357.749497 430.466159 360.574071 429.009756 369.765814 424.449375 377.510486 421.385272 391.676624 414.456752 392.066884 414.554599 392.174064 414.530562 394.121402 413.625329 398.844674 412.720662 401.050206 414.869069 406.927571 418.004437 411.532916 421.824173 414.28877 423.277465 417.643871 424.393664 415.762141 426.890194 Z" />
</svg>
